<?xml version="1.0" encoding="UTF-8" standalone="no"?><!DOCTYPE svg PUBLIC "-//W3C//DTD SVG 1.1//EN" "http://www.w3.org/Graphics/SVG/1.1/DTD/svg11.dtd"><svg width="100%" height="100%" viewBox="0 0 50 30" version="1.1" xmlns="http://www.w3.org/2000/svg" xmlns:xlink="http://www.w3.org/1999/xlink" xml:space="preserve" style="fill-rule:evenodd;clip-rule:evenodd;stroke-linejoin:round;stroke-miterlimit:1.41421;"><path d="M13.939,23.774l7.159,0l0,6.013l-10.203,0l3.044,-6.013Zm11.83,-23.756l5.379,0l0,-0.005l0.731,0l14.965,29.763l-5.413,0l-3.116,-6.114l-7.106,0l0,6.117l-5.44,0l0,-29.761Zm-10.543,0l5.465,0l-15.225,29.759l-5.466,0l15.226,-29.759Zm33.223,25.528c0.866,0 1.551,0.703 1.551,1.583c0,0.891 -0.685,1.587 -1.556,1.587c-0.865,0 -1.567,-0.696 -1.567,-1.587c0,-0.88 0.702,-1.583 1.567,-1.583l0.005,0Zm0,0.246l-0.005,0c-0.698,0.001 -1.266,0.598 -1.266,1.337c0,0.749 0.568,1.341 1.271,1.341c0.702,0.009 1.267,-0.592 1.267,-1.334c0,-0.746 -0.565,-1.343 -1.267,-1.344Zm-0.305,2.257l-0.28,0l0,-1.764c0.149,-0.021 0.289,-0.043 0.5,-0.043c0.267,0 0.444,0.058 0.55,0.135c0.104,0.075 0.161,0.196 0.161,0.364c0,0.232 -0.155,0.374 -0.345,0.43l0,0.013c0.155,0.029 0.259,0.17 0.295,0.429c0.042,0.272 0.085,0.38 0.112,0.436l-0.294,0c-0.043,-0.056 -0.084,-0.218 -0.12,-0.449c-0.043,-0.225 -0.152,-0.311 -0.38,-0.311l-0.199,0l0,0.76Zm0,-0.978l0.208,0c0.23,0 0.426,-0.084 0.426,-0.301c0,-0.155 -0.111,-0.311 -0.426,-0.311c-0.092,0 -0.156,0.009 -0.208,0.015l0,0.597Zm-27.072,-7.738l-4.882,0l4.882,-9.614l0,9.614Zm15.027,-0.025l-4.89,-9.602l0,9.602l4.89,0Z" style="fill:#c90107;"/></svg>