<svg viewBox="0 0 48 48" xmlns="http://www.w3.org/2000/svg" fill-rule="evenodd" clip-rule="evenodd" stroke-linejoin="round" stroke-miterlimit="1.414"><path d="M42.456 26.694c.841 0 1.524.682 1.524 1.522v18.262c0 .84-.683 1.522-1.524 1.522h-9.14a1.524 1.524 0 0 1-1.524-1.522c0-.84.683-1.522 1.524-1.522h7.617v-6.087h-7.617a1.524 1.524 0 0 1-1.524-1.522v-9.131c0-.84.683-1.522 1.524-1.522h9.14zM4.02 37.061h7.452V0h5.961v37.061h7.452L14.452 47.482 4.02 37.061zm36.913-1.236v-6.087h-6.094v6.087h6.094zm-1.305-14.519a1.523 1.523 0 0 1-1.523-1.522V3.044h-1.524a1.523 1.523 0 1 1 0-3.044h3.047c.841 0 1.523.682 1.523 1.522v18.262c0 .84-.682 1.522-1.523 1.522z"/></svg>