<svg viewBox="0 0 48 48" xmlns="http://www.w3.org/2000/svg" fill-rule="evenodd" clip-rule="evenodd" stroke-linejoin="round" stroke-miterlimit="1.414"><path d="M31.391 0c3.91 0 7.093 3.185 7.093 7.093v2.745h1.235c3.91 0 7.093 3.185 7.093 7.094v11.44c0 3.911-3.184 7.094-7.093 7.094h-1.244v8.993A3.549 3.549 0 0 1 34.934 48H12.938a3.55 3.55 0 0 1-3.542-3.541v-8.993H8.282c-3.911 0-7.094-3.185-7.094-7.094v-11.44c0-3.91 3.184-7.093 7.094-7.094h1.123V7.093C9.405 3.183 12.589 0 16.499 0h14.892zm3.541 45.333a.861.861 0 0 0 .855-.855V29.644H12.081v14.834c0 .466.387.855.855.855h21.996zm-2.388-6.276c.737 0 1.334.597 1.334 1.343a1.338 1.338 0 0 1-1.343 1.342H15.434a1.338 1.338 0 0 1-1.343-1.343c0-.745.597-1.342 1.343-1.342h17.11zm-.109-5.492a1.339 1.339 0 0 1 1.342 1.343c0 .745-.597 1.342-1.342 1.343l-17.102-.001a1.343 1.343 0 0 1 0-2.685h17.102zm11.691-5.184v-11.44a4.416 4.416 0 0 0-4.407-4.407H8.283a4.416 4.416 0 0 0-4.407 4.407v11.44a4.416 4.416 0 0 0 4.407 4.407h1.124v-3.144h-1.98a1.337 1.337 0 0 1-1.343-1.342c0-.745.597-1.342 1.343-1.343h32.829a1.339 1.339 0 0 1 1.342 1.343c0 .745-.597 1.342-1.342 1.342h-1.772v3.144h1.233a4.415 4.415 0 0 0 4.407-4.407h.002zm-4.439-13.27c.746 0 1.343.597 1.343 1.342a1.338 1.338 0 0 1-1.343 1.343h-2.725a1.338 1.338 0 0 1-1.343-1.343c0-.745.597-1.342 1.343-1.342h2.725zm-3.909-5.273V7.093a4.416 4.416 0 0 0-4.407-4.407H16.488a4.416 4.416 0 0 0-4.407 4.407v2.745h23.697z"/></svg>