<svg viewBox="0 0 48 48" xmlns="http://www.w3.org/2000/svg" fill-rule="evenodd" clip-rule="evenodd" stroke-linejoin="round" stroke-miterlimit="1.414"><path d="M32 24.007c0-2.209-.781-4.094-2.344-5.657-1.562-1.562-3.448-2.344-5.656-2.343-2.208 0-4.094.781-5.656 2.343C16.781 19.913 16 21.798 16 24.007c0 2.208.781 4.093 2.344 5.656 1.562 1.562 3.448 2.344 5.656 2.344 2.208 0 4.094-.782 5.656-2.344C31.219 28.1 32 26.215 32 24.007zM48 20.6v6.938c0 .25-.083.489-.25.719a.953.953 0 0 1-.625.406l-5.781.875c-.396 1.125-.802 2.073-1.219 2.844.729 1.041 1.844 2.479 3.344 4.312.208.25.312.51.312.781s-.094.511-.281.719c-.563.771-1.594 1.896-3.094 3.375-1.5 1.479-2.479 2.219-2.937 2.219-.25 0-.521-.094-.813-.281l-4.312-3.375c-.917.479-1.865.875-2.844 1.187-.333 2.833-.635 4.771-.906 5.813-.146.583-.521.875-1.125.875h-6.938a1.18 1.18 0 0 1-.765-.266.926.926 0 0 1-.36-.672l-.875-5.75a19.31 19.31 0 0 1-2.812-1.156l-4.406 3.344a1.129 1.129 0 0 1-.782.281c-.291 0-.552-.115-.781-.344-2.625-2.375-4.344-4.125-5.156-5.25a1.22 1.22 0 0 1 .031-1.438c.312-.437.844-1.13 1.594-2.078a65.748 65.748 0 0 0 1.687-2.203 15.492 15.492 0 0 1-1.281-3.094l-5.719-.843a.985.985 0 0 1-.656-.391 1.179 1.179 0 0 1-.25-.734v-6.938c0-.25.083-.489.25-.719.167-.229.365-.364.594-.406l5.812-.875A15.45 15.45 0 0 1 7.875 15.6c-.833-1.187-1.948-2.625-3.344-4.312-.208-.25-.312-.5-.312-.75 0-.209.094-.448.281-.719.542-.75 1.568-1.87 3.078-3.359 1.511-1.49 2.495-2.235 2.953-2.235.271 0 .542.104.813.313l4.312 3.343A17.819 17.819 0 0 1 18.5 6.694c.333-2.833.635-4.771.906-5.813.146-.583.521-.875 1.125-.875h6.938c.291 0 .547.089.765.266a.926.926 0 0 1 .36.672l.875 5.75a19.31 19.31 0 0 1 2.812 1.156l4.438-3.344c.187-.187.437-.281.75-.281.271 0 .531.104.781.313 2.687 2.479 4.406 4.25 5.156 5.312.146.167.219.396.219.688a1.2 1.2 0 0 1-.25.718 59.108 59.108 0 0 1-1.594 2.079 64.72 64.72 0 0 0-1.687 2.203 18.812 18.812 0 0 1 1.281 3.062l5.719.875a.985.985 0 0 1 .656.391c.167.219.25.463.25.734z"/></svg>