<svg viewBox="0 0 48 48" xmlns="http://www.w3.org/2000/svg" fill-rule="evenodd" clip-rule="evenodd" stroke-linejoin="round" stroke-miterlimit="1.414"><path d="M24 0C10.746 0 0 10.746 0 24s10.746 24 24 24c13.251 0 24-10.745 24-24.002C48 10.746 37.251 0 24 0zm-.141 38.086h-.125c-1.915-.056-3.268-1.471-3.212-3.36.054-1.856 1.439-3.206 3.292-3.206l.111.005c1.971.056 3.307 1.455 3.251 3.398-.056 1.861-1.416 3.163-3.317 3.163zm8.209-16.13c-.451.638-1.441 1.435-2.69 2.408l-1.377.95c-.754.588-1.21 1.143-1.378 1.684-.137.425-.201.542-.214 1.413v.219h-5.255l.015-.445c.066-1.823.11-2.901.867-3.791 1.188-1.39 3.81-3.081 3.921-3.152a4.03 4.03 0 0 0 .927-.948c.551-.762.795-1.361.795-1.943 0-.818-.242-1.575-.719-2.244-.461-.651-1.336-.975-2.599-.975-1.256 0-2.116.396-2.627 1.214-.528.836-.796 1.716-.796 2.615v.225H15.52l.011-.235c.139-3.315 1.325-5.702 3.516-7.098 1.379-.884 3.096-1.333 5.099-1.333 2.617 0 4.83.637 6.57 1.891 1.767 1.272 2.661 3.178 2.661 5.662-.003 1.389-.441 2.695-1.309 3.883z"/></svg>