<svg viewBox="0 0 48 48" xmlns="http://www.w3.org/2000/svg" fill-rule="evenodd" clip-rule="evenodd" stroke-linejoin="round" stroke-miterlimit="1.414"><path d="M5.143 44.571h37.714V17.143H5.143v27.428zM15.429 12V4.286a.833.833 0 0 0-.242-.616.832.832 0 0 0-.616-.241h-1.714c-.25 0-.455.08-.616.241a.832.832 0 0 0-.241.616V12c0 .25.08.455.241.616a.833.833 0 0 0 .616.241h1.714c.25 0 .456-.08.616-.241a.834.834 0 0 0 .242-.616zM36 12V4.286c0-.25-.08-.456-.241-.616a.833.833 0 0 0-.616-.241h-1.714c-.25 0-.456.08-.616.241a.833.833 0 0 0-.242.616V12c0 .25.081.455.242.616.16.161.366.241.616.241h1.714c.25 0 .455-.08.616-.241A.833.833 0 0 0 36 12zm10.286-1.714v34.285c0 .929-.34 1.733-1.018 2.411-.679.679-1.482 1.018-2.411 1.018H5.143c-.929 0-1.732-.339-2.411-1.018-.678-.678-1.018-1.482-1.018-2.411V10.286c0-.929.34-1.732 1.018-2.411.679-.679 1.482-1.018 2.411-1.018h3.428V4.286c0-1.179.42-2.188 1.259-3.027C10.67.42 11.679 0 12.857 0h1.714c1.179 0 2.188.42 3.027 1.259s1.259 1.848 1.259 3.027v2.571h10.286V4.286c0-1.179.419-2.188 1.259-3.027C31.241.42 32.25 0 33.429 0h1.714c1.178 0 2.187.42 3.027 1.259.839.839 1.258 1.848 1.258 3.027v2.571h3.429c.929 0 1.732.339 2.411 1.018.678.679 1.018 1.482 1.018 2.411z"/></svg>