<svg viewBox="0 0 48 48" xmlns="http://www.w3.org/2000/svg" fill-rule="evenodd" clip-rule="evenodd" stroke-linejoin="round" stroke-miterlimit="1.414"><path d="M1.05 41.839l16.405-17.832L1.05 6.159a3.625 3.625 0 0 1 0-5.103 3.56 3.56 0 0 1 5.061 0l20.003 20.389a3.631 3.631 0 0 1 0 5.108L6.111 46.942a3.555 3.555 0 0 1-5.061 0 3.625 3.625 0 0 1 0-5.103zm20.84 0l16.405-17.832L21.89 6.159a3.625 3.625 0 0 1 0-5.103 3.56 3.56 0 0 1 5.061 0l20.003 20.389a3.631 3.631 0 0 1 0 5.108L26.951 46.942a3.555 3.555 0 0 1-5.061 0 3.625 3.625 0 0 1 0-5.103z"/></svg>