<svg viewBox="0 0 48 48" xmlns="http://www.w3.org/2000/svg" fill-rule="evenodd" clip-rule="evenodd" stroke-linejoin="round" stroke-miterlimit="1.414"><path d="M1.148 26.572l15 8.058c.504.27 1.156.398 1.812.398.656 0 1.308-.128 1.812-.398l15-8.058c.978-.526 1.902-2.572.108-2.572H1.042c-1.794 0-.87 2.046.106 2.572zm34.078 4.406c.782-.408.774.07.774.438V46c0 .84-1.132 2-2 2H2c-.868 0-2-1.16-2-2V31.414c0-.368-.008-.846.772-.438 1.11.578 14.696 7.7 15.376 8.056.68.356 1.156.398 1.812.398.656 0 1.132-.042 1.812-.398.68-.356 14.344-7.476 15.454-8.054zM47.481.51c.346.346.519.757.519 1.231V14.26a1.741 1.741 0 0 1-.519 1.23 1.726 1.726 0 0 1-1.221.51h-1.443c-.487 0-.9-.17-1.24-.51a1.685 1.685 0 0 1-.509-1.24V8.616l-6.769 6.769c-.334.333-.725.484-1.173.452a1.82 1.82 0 0 1-1.183-.558l-1.231-1.231a1.813 1.813 0 0 1-.557-1.182c-.033-.449.118-.84.451-1.174l6.769-6.768-5.644-.01a1.615 1.615 0 0 1-1.23-.5 1.615 1.615 0 0 1-.5-1.231V1.741c0-.487.166-.897.5-1.231a1.689 1.689 0 0 1 1.24-.509H46.26c.461-.013.868.157 1.221.509z"/></svg>