<svg viewBox="0 0 48 48" xmlns="http://www.w3.org/2000/svg" fill-rule="evenodd" clip-rule="evenodd" stroke-linejoin="round" stroke-miterlimit="1.414"><path d="M47.123 15.878l-15-15a3.003 3.003 0 0 0-4.989 1.233c-.68 2.204-1.854 4.119-3.593 5.856-2.322 2.321-5.346 4.079-8.545 5.937-3.396 1.968-6.905 4.008-9.78 6.882-2.444 2.447-4.107 5.168-5.082 8.327a3.003 3.003 0 0 0 .744 3.009l15 15a3.002 3.002 0 0 0 4.989-1.236c.681-2.204 1.855-4.119 3.595-5.856 2.321-2.321 5.343-4.076 8.546-5.933 3.393-1.971 6.903-4.011 9.777-6.885 2.443-2.443 4.107-5.167 5.083-8.326a3.009 3.009 0 0 0-.745-3.008zM18 44.999l-15-15c4.263-13.801 22.74-13.198 27-27l15.003 15c-4.264 13.799-22.741 13.199-27.003 27zm11.343-22.65c-.489-.409-.981-.688-1.476-.826a4.296 4.296 0 0 0-1.482-.158 5.31 5.31 0 0 0-1.5.344 20.18 20.18 0 0 0-1.521.657 84.693 84.693 0 0 0-2.416-2.69c.363-.328.715-.495 1.054-.507.341-.015.668.021.978.099.317.08.606.147.873.2a.808.808 0 0 0 .71-.179.997.997 0 0 0 .354-.723c.015-.295-.096-.583-.344-.864a1.936 1.936 0 0 0-1.155-.664 3.555 3.555 0 0 0-1.395.031 4.717 4.717 0 0 0-1.353.539c-.427.252-.771.51-1.026.762a37.024 37.024 0 0 0-.292-.276.565.565 0 0 0-.405-.15.523.523 0 0 0-.41.199.544.544 0 0 0-.138.428c.015.16.08.283.191.378.097.082.195.163.292.249a6.89 6.89 0 0 0-.949 1.515 5.07 5.07 0 0 0-.458 1.599 3.173 3.173 0 0 0 .158 1.45c.16.449.457.83.891 1.19.706.586 1.537.835 2.502.78.961-.059 1.998-.345 3.112-.944a97.223 97.223 0 0 0 2.66 2.982c-.375.317-.704.498-.993.557-.29.061-.548.055-.782-.015a2.51 2.51 0 0 1-.651-.314 4.567 4.567 0 0 0-.592-.351 1.385 1.385 0 0 0-.597-.153c-.204-.003-.422.096-.662.302-.246.214-.369.463-.369.744 0 .28.129.562.381.849.255.286.587.528.987.718.401.191.854.311 1.352.344a3.761 3.761 0 0 0 1.576-.246c.557-.203 1.107-.569 1.65-1.113.261.255.525.498.788.732a.54.54 0 0 0 .409.132.543.543 0 0 0 .405-.212.576.576 0 0 0 .141-.439.51.51 0 0 0-.187-.366 20.473 20.473 0 0 1-.791-.668 8.152 8.152 0 0 0 1.076-1.705 5.242 5.242 0 0 0 .477-1.65 2.95 2.95 0 0 0-.179-1.412c-.168-.43-.466-.799-.894-1.155zm-8.386 1.017a1.458 1.458 0 0 1-1.119-.436 1.108 1.108 0 0 1-.293-.483 1.516 1.516 0 0 1-.058-.627c.021-.225.088-.461.205-.698.111-.237.276-.474.486-.703.761.756 1.52 1.585 2.28 2.443-.576.317-1.077.486-1.501.504zm7.075 3.003a3.168 3.168 0 0 1-.471.665 61.899 61.899 0 0 1-2.52-2.739c.215-.096.44-.197.683-.299.243-.102.486-.169.729-.211.249-.038.495-.027.741.031.243.062.474.194.688.402.212.212.345.431.399.668.059.24.062.483.021.732-.043.25-.132.499-.27.751zm-5.956 6.9a.749.749 0 0 1 1.002 1.113c-.024.024-.05.041-.077.062l.003.003c-.949.721-1.729 1.371-2.571 2.212a20.44 20.44 0 0 0-2.041 2.37l-.959 1.313a.718.718 0 0 1-.111.15.757.757 0 0 1-1.065 0 .756.756 0 0 1-.099-.941l-.003-.003 1.026-1.401a21.878 21.878 0 0 1 2.192-2.548c.847-.851 1.762-1.61 2.7-2.33h.003zm5.491-21.697a20.227 20.227 0 0 0 2.04-2.372l.996-1.365a.83.83 0 0 1 .132-.184.756.756 0 0 1 1.107 1.026l.003.003-1.026 1.407a22.036 22.036 0 0 1-2.191 2.545c-.848.848-1.761 1.61-2.699 2.33l-.006-.003a.756.756 0 0 1-1.048-.021.76.76 0 0 1 .175-1.202c.882-.673 1.733-1.38 2.517-2.164z" fill-rule="nonzero"/></svg>