<svg viewBox="0 0 48 48" xmlns="http://www.w3.org/2000/svg" fill-rule="evenodd" clip-rule="evenodd" stroke-linejoin="round" stroke-miterlimit="1.414"><path d="M30.893 42.049l-2.47 5.088a1.67 1.67 0 0 1-.297.432c-.298.287-.65.431-1.056.431-.417 0-.769-.146-1.057-.439a1.445 1.445 0 0 1-.431-1.049c0-.287.074-.545.223-.773l8.822-18.18c.069-.158.174-.307.312-.446.288-.298.64-.446 1.057-.446.406 0 .758.148 1.056.446a1.5 1.5 0 0 1 .283.387l8.821 18.179c.169.238.253.516.253.833 0 .407-.146.757-.438 1.049a1.432 1.432 0 0 1-1.049.439 1.44 1.44 0 0 1-1.057-.431 1.696 1.696 0 0 1-.297-.432h-.015l-2.47-5.088h-10.19zm-29.302-4.94h7.461V0h5.969v37.109h7.461L12.037 47.544 1.591 37.109zm38.049 1.965l-3.644-7.513-3.66 7.513h7.304zm1.998-17.741H29.736c-.406 0-.756-.146-1.049-.439a1.431 1.431 0 0 1-.438-1.048c0-.298.074-.566.223-.804L38.9 2.975h-8.42a1.43 1.43 0 0 1-1.049-.439 1.432 1.432 0 0 1-.439-1.048c0-.417.147-.769.439-1.057A1.446 1.446 0 0 1 30.48 0h11.158c.416 0 .768.144 1.056.431.288.288.431.64.431 1.057 0 .377-.099.719-.297 1.026L32.459 18.358h9.179c.416 0 .768.144 1.056.431.288.288.431.64.431 1.057 0 .406-.143.756-.431 1.048-.288.293-.64.439-1.056.439z"/></svg>