<svg viewBox="0 0 48 48" xmlns="http://www.w3.org/2000/svg" fill-rule="evenodd" clip-rule="evenodd" stroke-linejoin="round" stroke-miterlimit="1.414"><path d="M44.332 28.812c.96.541 1.58 1.349 1.862 2.422.282 1.073.152 2.089-.39 3.046l-2.003 3.438c-.541.959-1.35 1.579-2.424 1.86-1.075.281-2.091.151-3.049-.39l-8.321-4.782V44c0 1.083-.397 2.02-1.19 2.812-.793.792-1.731 1.188-2.815 1.188h-4.004c-1.084 0-2.022-.396-2.815-1.188-.793-.792-1.19-1.729-1.19-2.812v-9.594l-8.321 4.782c-.959.541-1.976.671-3.049.39s-1.881-.901-2.424-1.86L2.196 34.28c-.542-.959-.672-1.974-.39-3.046.282-1.072.902-1.879 1.862-2.422L11.989 24l-8.321-4.812c-.96-.541-1.58-1.349-1.862-2.422-.282-1.073-.152-2.089.39-3.046l2.003-3.438c.541-.959 1.35-1.579 2.424-1.86 1.075-.281 2.091-.151 3.049.39l8.321 4.782V4c0-1.083.397-2.02 1.19-2.812C19.976.396 20.914 0 21.998 0h4.004c1.084 0 2.022.396 2.815 1.188.793.792 1.19 1.729 1.19 2.812v9.594l8.321-4.782c.959-.541 1.976-.671 3.049-.39s1.881.901 2.424 1.86l2.003 3.438c.542.959.672 1.974.39 3.046-.282 1.072-.902 1.879-1.862 2.422L36.011 24l8.321 4.812z"/></svg>