<svg viewBox="0 0 48 48" xmlns="http://www.w3.org/2000/svg" fill-rule="evenodd" clip-rule="evenodd" stroke-linejoin="round" stroke-miterlimit="1.414"><path d="M47.443 44.702a1.942 1.942 0 0 1 0 2.732 1.902 1.902 0 0 1-2.707 0L22.862 25.365a1.942 1.942 0 0 1 0-2.732L44.736.565a1.904 1.904 0 0 1 2.707 0 1.942 1.942 0 0 1 0 2.732l-19.95 20.704 19.95 20.701zm-22.3 0a1.942 1.942 0 0 1 0 2.732 1.902 1.902 0 0 1-2.707 0L.562 25.365a1.942 1.942 0 0 1 0-2.732L22.436.565a1.904 1.904 0 0 1 2.707 0 1.942 1.942 0 0 1 0 2.732L5.193 24.001l19.95 20.701z"/></svg>