<svg viewBox="0 0 48 48" xmlns="http://www.w3.org/2000/svg" fill-rule="evenodd" clip-rule="evenodd" stroke-linejoin="round" stroke-miterlimit="1.414"><path d="M24.087 47.088c12.702 0 23.001-10.296 23.001-23.002 0-12.705-10.299-23.001-23.001-23.001-12.705 0-22.999 10.296-22.999 23.001-.004 12.706 10.293 23.002 22.999 23.002z" fill="#fff"/><path d="M24 0c13.256 0 24 10.747 24 24 0 13.258-10.744 23.998-24 23.998-13.253 0-24-10.74-24-23.998C.001 10.747 10.747 0 24 0zm0 44.886c11.534 0 20.886-9.35 20.886-20.886S35.534 3.114 24 3.114C12.463 3.114 3.116 12.464 3.116 24 3.112 35.536 12.463 44.886 24 44.886z"/><path d="M26.67 29.16h-5.11l-.804-18.623h6.719L26.67 29.16zm-6.102 5.802c0-.924.334-1.682 1.002-2.274.667-.593 1.5-.889 2.498-.889.999 0 1.831.296 2.499.889.668.592 1.001 1.35 1.001 2.274 0 .923-.333 1.681-1.001 2.274-.668.592-1.5.889-2.499.889-.998 0-1.831-.297-2.498-.889-.668-.593-1.002-1.351-1.002-2.274z"/></svg>