<svg viewBox="0 0 48 48" xmlns="http://www.w3.org/2000/svg" fill-rule="evenodd" clip-rule="evenodd" stroke-linejoin="round" stroke-miterlimit="1.414"><path d="M23.683 35.602c0 1.4.399 1.958 1.44 1.958 2.322 0 3.8-2.958 3.8-7.878 0-7.52-5.48-11.12-12.321-11.12-7.039 0-13.44 4.72-13.44 13.64 0 8.52 5.6 13.16 14.2 13.16 2.92 0 4.88-.32 7.878-1.32l.643 2.678c-2.96.962-6.123 1.24-8.561 1.24C6.042 47.96 0 41.76 0 32.2 0 22.56 7.002 16 16.642 16 26.682 16 32 22 32 29.36c0 6.24-1.958 11-8.118 11-2.802 0-4.64-1.12-4.88-3.602-.72 2.76-2.64 3.602-5.242 3.602-3.48 0-6.4-2.682-6.4-8.08 0-5.44 2.562-8.8 7.162-8.8 2.44 0 3.96.96 4.636 2.48l1.162-2.12h3.36v11.762h.003zm-4.918-5.28c0-2.199-1.642-3.12-3.002-3.12-1.48 0-3.118 1.198-3.118 4.72 0 2.8 1.24 4.36 3.118 4.36 1.32 0 3.002-.84 3.002-3.16v-2.8zM46.26 16h-1.443c-.487 0-.9-.17-1.24-.51a1.685 1.685 0 0 1-.509-1.24V8.616l-6.769 6.769c-.334.333-.725.484-1.173.452a1.82 1.82 0 0 1-1.183-.558l-1.231-1.231a1.813 1.813 0 0 1-.557-1.182c-.033-.449.118-.84.451-1.174l6.769-6.768-5.644-.01a1.615 1.615 0 0 1-1.23-.5 1.615 1.615 0 0 1-.5-1.231V1.741c0-.487.166-.897.5-1.231a1.689 1.689 0 0 1 1.24-.509H46.26c.461-.013.868.157 1.221.509.346.346.519.757.519 1.231V14.26a1.741 1.741 0 0 1-.519 1.23 1.726 1.726 0 0 1-1.221.51z"/></svg>