<svg viewBox="0 0 48 48" xmlns="http://www.w3.org/2000/svg" fill-rule="evenodd" clip-rule="evenodd" stroke-linejoin="round" stroke-miterlimit="1.414"><path d="M39.628 48a1.523 1.523 0 0 1-1.523-1.522v-16.74h-1.524a1.523 1.523 0 1 1 0-3.044h3.047c.841 0 1.523.682 1.523 1.522v18.262c0 .84-.682 1.522-1.523 1.522zM4.02 37.061h7.452V0h5.961v37.061h7.452L14.452 47.482 4.02 37.061zM42.456 0c.841 0 1.524.682 1.524 1.522v18.262c0 .84-.683 1.522-1.524 1.522h-9.14a1.524 1.524 0 0 1-1.524-1.522c0-.84.683-1.522 1.524-1.522h7.617v-6.087h-7.617a1.524 1.524 0 0 1-1.524-1.522V1.522c0-.84.683-1.522 1.524-1.522h9.14zm-1.523 9.131V3.044h-6.094v6.087h6.094z"/></svg>