<svg viewBox="0 0 48 48" xmlns="http://www.w3.org/2000/svg" fill-rule="evenodd" clip-rule="evenodd" stroke-linejoin="round" stroke-miterlimit="1.414"><path d="M48 4v14a1.92 1.92 0 0 1-.594 1.406A1.92 1.92 0 0 1 46 20H32c-.875 0-1.49-.417-1.844-1.25-.354-.813-.208-1.531.438-2.156l4.312-4.313C31.823 9.427 28.187 8 24 8a15.58 15.58 0 0 0-6.203 1.266c-1.969.843-3.672 1.984-5.11 3.421-1.437 1.438-2.578 3.141-3.421 5.11A15.58 15.58 0 0 0 8 24c0 2.167.422 4.234 1.266 6.203.843 1.969 1.984 3.672 3.421 5.109 1.438 1.438 3.141 2.579 5.11 3.422A15.58 15.58 0 0 0 24 40a15.76 15.76 0 0 0 7.031-1.625 15.69 15.69 0 0 0 5.594-4.594c.146-.208.385-.333.719-.375.291 0 .552.094.781.282L42.406 38c.188.167.287.38.297.641.011.26-.068.494-.234.703a23.459 23.459 0 0 1-8.25 6.39A23.825 23.825 0 0 1 24 48c-3.25 0-6.354-.635-9.313-1.906-2.958-1.271-5.51-2.979-7.656-5.125s-3.854-4.698-5.125-7.656A23.352 23.352 0 0 1 0 24c0-3.25.635-6.354 1.906-9.313 1.271-2.958 2.979-5.51 5.125-7.656s4.698-3.854 7.656-5.125A23.352 23.352 0 0 1 24 0c3.063 0 6.026.578 8.891 1.734a24.277 24.277 0 0 1 7.64 4.891l4.063-4.031c.604-.646 1.333-.792 2.187-.438C47.594 2.51 48 3.125 48 4z"/></svg>