<svg viewBox="0 0 48 48" xmlns="http://www.w3.org/2000/svg" fill-rule="evenodd" clip-rule="evenodd" stroke-linejoin="round" stroke-miterlimit="1.414"><path d="M41.149 26.903v14.291c0 .516-.189.962-.566 1.339a1.826 1.826 0 0 1-1.339.566H27.811V31.666h-7.622v11.433H8.756c-.516 0-.962-.188-1.339-.566a1.83 1.83 0 0 1-.566-1.339V26.903c0-.02.005-.05.015-.089a.41.41 0 0 0 .015-.09L24 12.612l17.119 14.112c.02.04.03.099.03.179zm6.639-2.054l-1.846 2.203a1.01 1.01 0 0 1-.625.327h-.089c-.258 0-.467-.069-.625-.208L24 9.992 3.397 27.171c-.238.159-.476.228-.714.208a1.01 1.01 0 0 1-.625-.327L.212 24.849a.966.966 0 0 1-.209-.7.864.864 0 0 1 .328-.64L21.737 5.675c.635-.516 1.39-.774 2.263-.774s1.628.258 2.263.774l7.264 6.074V5.943a.93.93 0 0 1 .268-.685.93.93 0 0 1 .685-.268h5.716a.93.93 0 0 1 .685.268.927.927 0 0 1 .268.685V18.09l6.52 5.419a.862.862 0 0 1 .328.64.966.966 0 0 1-.209.7z"/></svg>