<svg viewBox="0 0 48 48" xmlns="http://www.w3.org/2000/svg" fill-rule="evenodd" clip-rule="evenodd" stroke-linejoin="round" stroke-miterlimit="1.414"><path d="M24 22.5c-2.467 0-4.466-2.015-4.466-4.5 0-2.486 1.999-4.5 4.466-4.5s4.466 2.014 4.466 4.5c0 2.485-1.999 4.5-4.466 4.5zm0-12c-4.111 0-7.444 3.357-7.444 7.5s3.333 7.5 7.444 7.5 7.444-3.357 7.444-7.5-3.333-7.5-7.444-7.5zm0 33C21.524 43.513 9.112 24.271 9.112 18 9.112 9.717 15.777 3 24 3c8.223 0 14.888 6.717 14.888 15 0 6.187-12.451 25.513-14.888 25.5zM24 0C14.134 0 6.135 8.059 6.135 18c0 7.527 14.895 30.016 17.865 30 2.924.016 17.865-22.575 17.865-30 0-9.941-7.999-18-17.865-18z"/></svg>