<svg viewBox="0 0 48 48" xmlns="http://www.w3.org/2000/svg" fill-rule="evenodd" clip-rule="evenodd" stroke-linejoin="round" stroke-miterlimit="1.414"><path d="M39.426 0H8.573a3.43 3.43 0 0 0-3.429 3.431v41.141A3.43 3.43 0 0 0 8.573 48h23.732l10.551-10.179V3.431A3.429 3.429 0 0 0 39.426 0zM14.971 35.113c-1.991 2.172-4.651 1.955-4.651 1.955-2.304-.898-1.407-2.717-1.046-3.62.362-.906 6.658-4.526 6.658-4.526-1.942 1.84-.545 2.897-.545 2.897 4.705-6.697 7.871-14.933 7.871-14.933-.363-.723-1.161-5.221-.982-8.298.182-3.076 3.602-1.085 3.602-1.085.905 1.267-.364 5.973-.364 5.973l.248 3.077c1.474 4.249 5.51 7.956 5.51 7.956 3.855-1.07 6.406.163 6.406.163 1.447.543 3.258 1.771 2.352 2.492-.905.725-.726.182-1.99-.542-1.268-.723-1.236.317-2.505.317l1.088.179c2.172 1.266 1.93 1.159 2.837 1.7.906.541-.945 1.998-.945 1.998l-5.694-3.86c-9.772 1.806-12.708 4.085-12.708 4.085s-2.828 4.072-5.142 4.072zm24.723.351l-9.585 9.16c-1.503 1.499-1.182-1.126-1.182-1.126v-5.787c0-3.587 3.963-3.587 3.963-3.587h6.162c2.517-.051.642 1.34.642 1.34z"/><path d="M24.526 21.485l-2.224 5.829s3.056-2.378 4.504-2.558c.001 0-1.918-1.46-2.28-3.271z"/></svg>