<svg viewBox="0 0 48 48" xmlns="http://www.w3.org/2000/svg" fill-rule="evenodd" clip-rule="evenodd" stroke-linejoin="round" stroke-miterlimit="1.414"><path d="M4.956 9.875h18.367v3.485H4.956V9.875zm30.548 21.833l-.822 1.464H0V0h46.65v17.557l-2.646 1.664V6.485H2.645v23.55h34.254c-.54.512-1.071 1.096-1.395 1.673zM4.956 15.992h33.387v3.489H4.956v-3.489zm43.033 3.39l.011-.016-.703 9.681-4.292 4.191-1.646-1.283 3.752-6.682c.357.066.733-.102.947-.486.293-.525.174-1.23-.269-1.582-.443-.344-1.04-.203-1.334.319-.221.397-.204.902.006 1.273l-3.744 6.662-1.599-1.247 1.702-6.327 7.169-4.503zM36.237 33.628c.584-1.047 2.574-2.487 2.571-2.487l3.55 2.802s-.44 2.737-1.002 3.735c-.559.998-4.186 7.453-4.186 7.453l-.756-.597-1.037-.824-.764-.604-2.565-2.025 4.189-7.453z"/></svg>