<svg viewBox="0 0 48 48" xmlns="http://www.w3.org/2000/svg" fill-rule="evenodd" clip-rule="evenodd" stroke-linejoin="round" stroke-miterlimit="1.414"><path d="M42.441 16.984l-3.646-3.772.736-5.201a1.484 1.484 0 0 0-1.215-1.671l-5.168-.91L30.685.795a1.5 1.5 0 0 0-1.968-.643l-4.722 2.305L19.282.152a1.484 1.484 0 0 0-1.968.643L14.851 5.43l-5.169.91a1.487 1.487 0 0 0-1.215 1.671l.737 5.201-3.647 3.772a1.493 1.493 0 0 0 0 2.07l3.647 3.773-.737 5.2a1.484 1.484 0 0 0 1.215 1.671l4.141.721v16.093c0 .518.267.996.707 1.263.235.149.51.219.784.219.228 0 .455-.055.666-.157l8.016-4 8.024 4.007a1.51 1.51 0 0 0 1.45-.063c.44-.274.707-.753.707-1.263V30.416l4.141-.729a1.487 1.487 0 0 0 1.215-1.671l-.737-5.2 3.647-3.772a1.484 1.484 0 0 0 0-2.063l-.002.003zM24.658 40.843l6.534 3.262v-9.843l-.518.972a1.488 1.488 0 0 1-1.968.644l-4.713-2.306-4.713 2.313a1.5 1.5 0 0 1-1.968-.643l-.517-.972v9.835l6.534-3.262a1.476 1.476 0 0 1 1.333 0h-.004zm11.485-19.569c-.321.33-.471.792-.408 1.247l.636 4.493-4.47.785a1.49 1.49 0 0 0-1.059.768l-2.125 4.008-4.079-1.992a1.466 1.466 0 0 0-.651-.149c-.228 0-.447.047-.651.149l-4.078 1.992-2.126-4.008a1.467 1.467 0 0 0-1.059-.768l-4.469-.785.636-4.493a1.478 1.478 0 0 0-.408-1.239l-3.153-3.263 3.153-3.262c.321-.33.471-.792.4-1.239l-.636-4.494 4.47-.785a1.49 1.49 0 0 0 1.059-.768l2.125-4.008 4.079 1.992c.415.204.894.204 1.309 0l4.079-1.992 2.125 4.008c.212.408.605.69 1.059.768l4.47.785-.636 4.494c-.063.454.087.91.4 1.246l3.153 3.263-3.145 3.247zM23.995 7.84c-5.609 0-10.181 4.565-10.181 10.173 0 5.616 4.565 10.18 10.181 10.18 5.608 0 10.173-4.564 10.173-10.18 0-5.608-4.565-10.173-10.173-10.173zm0 17.379c-3.969 0-7.2-3.231-7.2-7.2 0-3.969 3.231-7.2 7.2-7.2 3.969 0 7.2 3.231 7.2 7.2 0 3.969-3.231 7.2-7.2 7.2zm3.036-10.98l-4.392 4.392-1.671-1.671a1.487 1.487 0 0 0-2.102 2.102l2.721 2.721c.29.289.675.432 1.052.432.384 0 .76-.149 1.051-.44l5.451-5.443a1.485 1.485 0 0 0 0-2.102 1.502 1.502 0 0 0-2.11.008v.001z"/></svg>