<svg viewBox="0 0 48 48" xmlns="http://www.w3.org/2000/svg" fill-rule="evenodd" clip-rule="evenodd" stroke-linejoin="round" stroke-miterlimit="1.414"><path d="M47.779 30.612c-.222-3.287-2.923-2.134.221-6.206-.645-6.878-8.684-5.81-16.956-5.378C28.65 17.021 42.399 2.441 28.183 0c-.442 2.413-.882 4.828-1.321 7.239-1.1 3.407-3.613 4.047-5.508 6.413-3.004 3.754-2.942 11.696-9.468 11.996v19.648c6.282.685 22.894 5.025 29.285 1.036 3.733-2.331 2.55-2.913 2.862-5.586.883-.963 2.13-1.379 2.644-2.896.593-1.503-.552-2.888-.881-4.344.736-.894 1.468-1.032 1.983-2.894zM9.025 24.821H.659c-.364 0-.659.278-.659.618v20.48c0 .342.296.62.659.62h8.366c.366 0 .662-.278.662-.62V25.441c.002-.342-.296-.62-.662-.62z"/></svg>