<svg viewBox="0 0 48 48" xmlns="http://www.w3.org/2000/svg" fill-rule="evenodd" clip-rule="evenodd" stroke-linejoin="round" stroke-miterlimit="1.414"><path d="M24.087 47.085c12.702 0 23.001-10.295 23.001-23 0-12.704-10.299-23-23.001-23-12.705 0-22.999 10.296-22.999 23-.004 12.705 10.293 23 22.999 23z" fill="#fff"/><path d="M24 0c13.256 0 24 10.747 24 24 0 13.258-10.744 23.998-24 23.998-13.253 0-24-10.74-24-23.998C.001 10.747 10.747 0 24 0zm0 44.886c11.534 0 20.886-9.35 20.886-20.886S35.534 3.114 24 3.114C12.463 3.114 3.116 12.464 3.116 24 3.112 35.536 12.463 44.886 24 44.886z"/><path d="M24.341 38.146h-.125c-1.915-.056-3.268-1.472-3.212-3.361.054-1.856 1.438-3.206 3.292-3.206l.111.005c1.971.056 3.307 1.455 3.251 3.398-.055 1.864-1.416 3.164-3.317 3.164zm8.064-16.002c-.451.639-1.441 1.436-2.69 2.409l-1.377.949c-.754.588-1.209 1.144-1.377 1.685-.137.425-.201.541-.214 1.413v.219h-5.255l.015-.445c.066-1.822.11-2.902.867-3.791 1.188-1.391 3.812-3.082 3.922-3.153a3.95 3.95 0 0 0 .926-.948c.551-.762.795-1.36.795-1.942 0-.819-.241-1.576-.719-2.244-.462-.652-1.336-.976-2.599-.976-1.257 0-2.117.396-2.627 1.214-.527.837-.796 1.716-.796 2.615v.226h-5.418l.011-.235c.139-3.316 1.325-5.703 3.517-7.098 1.378-.885 3.096-1.334 5.098-1.334 2.618 0 4.83.638 6.571 1.892 1.768 1.272 2.662 3.177 2.662 5.661-.006 1.39-.444 2.694-1.312 3.883z"/></svg>