<svg viewBox="0 0 48 48" xmlns="http://www.w3.org/2000/svg" fill-rule="evenodd" clip-rule="evenodd" stroke-linejoin="round" stroke-miterlimit="1.414"><path d="M24.087 47.088c12.702 0 23.001-10.296 23.001-23.002 0-12.705-10.299-23.001-23.001-23.001-12.705 0-22.999 10.296-22.999 23.001-.004 12.706 10.293 23.002 22.999 23.002z" fill="#fff"/><path d="M24 0c13.256 0 24 10.747 24 24 0 13.258-10.744 23.998-24 23.998-13.253 0-24-10.74-24-23.998C.001 10.747 10.747 0 24 0zm0 44.886c11.534 0 20.886-9.35 20.886-20.886S35.534 3.114 24 3.114C12.463 3.114 3.116 12.464 3.116 24 3.112 35.536 12.463 44.886 24 44.886z"/><path d="M33.829 33.652c-.934.934-1.634 1.517-2.568.583l-6.889-6.888-6.888 6.888c-.934.934-1.635.234-2.569-.583-.934-.818-1.517-1.635-.583-2.569l6.888-6.888-6.888-6.889c-.934-.934-.234-1.751.583-2.568.818-.818 1.635-1.518 2.569-.584l6.888 6.888 6.889-6.888c.934-.934 1.634-.234 2.568.584.934.817 1.518 1.634.584 2.568l-6.888 6.889 6.888 6.888c.934.934.35 1.751-.584 2.569z"/></svg>