<svg viewBox="0 0 48 48" xmlns="http://www.w3.org/2000/svg" fill-rule="evenodd" clip-rule="evenodd" stroke-linejoin="round" stroke-miterlimit="1.414"><path d="M46.825 9.933c.783.612 1.175 1.346 1.175 2.205v23.724c0 .859-.392 1.593-1.175 2.205-.783.611-1.725.917-2.825.917H4c-1.1 0-2.042-.306-2.825-.917C.392 37.455 0 36.721 0 35.862V12.138c0-.859.392-1.593 1.175-2.205C1.958 9.322 2.9 9.016 4 9.016h40c1.1 0 2.042.306 2.825.917zM3.665 11.87a.888.888 0 0 0-.592.212.64.64 0 0 0-.249.502v4.994h43.764v-4.994a.639.639 0 0 0-.25-.502.884.884 0 0 0-.591-.212H3.665zm42.082 25.687a.945.945 0 0 0 .591-.191c.167-.127.25-.278.25-.451V24.714H2.824v12.201c0 .173.083.324.249.451a.95.95 0 0 0 .592.191h42.082zM4.235 34.703v-2.854h4.236v2.854H4.235zm8.471 0v-2.854h7.059v2.854h-7.059z"/></svg>