<svg viewBox="0 0 48 48" xmlns="http://www.w3.org/2000/svg" fill-rule="evenodd" clip-rule="evenodd" stroke-linejoin="round" stroke-miterlimit="1.414"><path d="M36.616 19.97C30.435 6.665 27.219 1.611 17.118 1.821c-3.598.075-2.735-2.608-5.479-1.59-2.738 1.016-.388 2.506-3.192 4.806-7.868 6.462-7.144 12.437-3.494 26.682 1.537 5.998-3.707 6.292-1.633 12.105 1.516 4.24 12.686 6.016 24.47 1.646 11.785-4.371 19.213-13.053 17.697-17.294-2.073-5.814-6.266-2.604-8.871-8.206zM26.514 41.886c-10.525 3.904-19.175 1.609-19.541.588-.629-1.762 3.399-7.635 15.432-12.101 12.032-4.465 18.748-2.81 19.45-.844.414 1.163-4.813 8.45-15.341 12.357zm-3.384-9.474c-5.502 2.042-9.325 4.376-11.802 6.479 1.741 1.583 5.007 1.966 8.258.759 4.14-1.53 6.686-5.06 5.68-7.872-.014-.036-.029-.064-.043-.098a51.42 51.42 0 0 0-2.093.732z"/></svg>