<svg viewBox="0 0 48 48" xmlns="http://www.w3.org/2000/svg" fill-rule="evenodd" clip-rule="evenodd" stroke-linejoin="round" stroke-miterlimit="1.414"><path d="M4.695 48l.864-9.177 6.26 3.329L4.695 48zm38.065-5.486H17.757a.547.547 0 0 1-.545-.545V40.16c0-.301.242-.545.545-.545H42.76c.301 0 .545.247.545.545v1.809a.543.543 0 0 1-.545.545zM19.542 12.526l6.26 3.329-13.317 25.044-6.26-3.328 13.317-25.045zm23.22 21.29H23.553a.546.546 0 0 1-.542-.545v-1.809c0-.301.242-.545.542-.545h19.209c.3 0 .543.247.543.545v1.809a.543.543 0 0 1-.543.545zM30.715 9.632a.708.708 0 1 1 1.253.666l-8.654 16.279a.71.71 0 0 1-1.253-.665l5.66-10.644-8.768-4.662 1.998-3.755 8.766 4.661.998-1.88zm12.04 15.486H29.36a.55.55 0 0 1-.551-.545v-1.808c0-.302.252-.546.551-.546h13.395a.55.55 0 0 1 .55.546v1.808a.55.55 0 0 1-.55.545zM31.461 5.21l-2.33 4.384-6.261-3.328 2.331-4.384a3.545 3.545 0 1 1 6.26 3.328z" fill="#222"/></svg>