<svg viewBox="0 0 48 48" xmlns="http://www.w3.org/2000/svg" fill-rule="evenodd" clip-rule="evenodd" stroke-linejoin="round" stroke-miterlimit="1.414"><path d="M43.2 0H4.8C2.168 0 0 2.168 0 4.8v38.4C0 45.832 2.168 48 4.8 48h38.4c2.632 0 4.8-2.168 4.8-4.8V4.8C48 2.168 45.832 0 43.2 0zM17.187 16.568h-4.955v5.264h4.645v3.716h-4.645v9.446H8.206V13.006h8.981v3.562zm8.981 18.426h-3.871V19.045l-.31.31-1.393.929-.929.464v-4.18l1.703-1.394c.464-.464.929-1.084 1.393-1.548l.155-.465h3.252v21.833zm13.471-3.717v3.562H28.8v-2.942l5.11-7.742c.619-.929 1.238-1.858 1.548-2.942.31-.929.465-2.013.31-2.942 0-1.858-.774-1.858-1.239-1.858-.464 0-1.548.31-1.548 2.942v.619h-4.026v-.619c-.155-1.703.464-3.252 1.393-4.645 1.084-1.084 2.478-1.704 4.026-1.704 3.407 0 5.265 1.859 5.265 5.265 0 1.394-.155 2.787-.62 4.026a13.21 13.21 0 0 1-2.013 3.871l-3.251 5.109h5.884z"/></svg>