<svg viewBox="0 0 48 48" xmlns="http://www.w3.org/2000/svg" fill-rule="evenodd" clip-rule="evenodd" stroke-linejoin="round" stroke-miterlimit="1.414"><path d="M1.441 1.31c1.843-1.804 4.958-1.688 6.69 0 1.732 1.688 18.651 19.429 18.651 19.429a4.564 4.564 0 0 1 1.387 3.265 4.53 4.53 0 0 1-1.387 3.257S9.863 45.01 8.131 46.69c-1.732 1.688-4.847 1.804-6.69 0-1.848-1.792-1.993-4.308 0-6.514l15.522-16.172L1.441 7.832c-1.993-2.206-1.848-4.718 0-6.522zm19.83 0c1.843-1.804 4.958-1.688 6.69 0 1.732 1.688 18.651 19.429 18.651 19.429a4.564 4.564 0 0 1 1.387 3.265 4.53 4.53 0 0 1-1.387 3.257S29.693 45.01 27.961 46.69c-1.732 1.688-4.847 1.804-6.69 0-1.848-1.792-1.993-4.308 0-6.514l15.522-16.172L21.271 7.832c-1.993-2.206-1.848-4.718 0-6.522z"/></svg>