<svg viewBox="0 0 48 48" xmlns="http://www.w3.org/2000/svg" fill-rule="evenodd" clip-rule="evenodd" stroke-linejoin="round" stroke-miterlimit="1.414"><path d="M14.303 30.412h9.123v15.205h-9.123zM29.677 31.639L38.84 46.91H48l-9.16-15.271h-9.163z"/><path d="M47.634 22.472V7.199c0-3.374-2.365-6.109-5.742-6.109H20.516a6.11 6.11 0 0 0-6.109 6.109v12.22l9.162-.055v-9.108A3.055 3.055 0 0 1 26.622 7.2h9.164a3.056 3.056 0 0 1 3.053 3.056v9.163a3.055 3.055 0 0 1-3.053 3.054H11.067v-5.885L0 25.753l11.067 9.166v-6.335h30.825c3.377-.001 5.742-2.736 5.742-6.112z"/></svg>