<svg viewBox="0 0 48 48" xmlns="http://www.w3.org/2000/svg" fill-rule="evenodd" clip-rule="evenodd" stroke-linejoin="round" stroke-miterlimit="1.414"><path d="M39.475 0H8.424C6.519 0 5.06 1.674 5.06 3.578v40.973A3.448 3.448 0 0 0 8.509 48h24.476l9.955-10.62V3.578C42.939 1.674 41.384 0 39.475 0zM16.889 30.88H9.486l10.37-10.627L9.99 10.022h8.051l5.748 6.792 5.91-6.792h7.786l-9.865 10.06 10.479 10.796h-8.184l-6.123-7.112-6.903 7.114zm22.943 4.288l-9.219 9.65s-1.4 1.889-1.345-.649v-6.197s0-3.99 3.612-3.99h5.822c-.003.001 2.639-.325 1.13 1.186z"/></svg>