<svg viewBox="0 0 48 48" xmlns="http://www.w3.org/2000/svg" fill-rule="evenodd" clip-rule="evenodd" stroke-linejoin="round" stroke-miterlimit="1.414"><path d="M.562 44.702l19.949-20.701L.562 3.297a1.942 1.942 0 0 1 0-2.732 1.904 1.904 0 0 1 2.707 0l21.874 22.068c.749.76.749 1.979 0 2.732L3.269 47.434a1.902 1.902 0 0 1-2.707 0 1.942 1.942 0 0 1 0-2.732zm22.3 0l19.949-20.701L22.862 3.297a1.942 1.942 0 0 1 0-2.732 1.904 1.904 0 0 1 2.707 0l21.874 22.068c.749.76.749 1.979 0 2.732L25.569 47.434a1.902 1.902 0 0 1-2.707 0 1.942 1.942 0 0 1 0-2.732z"/></svg>