<svg viewBox="0 0 48 48" xmlns="http://www.w3.org/2000/svg" fill-rule="evenodd" clip-rule="evenodd" stroke-linejoin="round" stroke-miterlimit="1.414"><path d="M39.467 18.71h-4.8v-6.4C34.667 4.584 31.107.043 24 .043c-7.109 0-10.667 4.541-10.667 12.267v6.4H8c-1.475 0-2.666 1.723-2.666 3.198v20.804c0 1.463 1.14 3.036 2.536 3.485l3.192 1.033c1.397.444 3.738.813 5.206.813h15.466c1.466 0 3.81-.37 5.203-.818l3.19-1.031c1.396-.446 2.539-2.019 2.539-3.482V21.908c.002-1.475-1.726-3.198-3.199-3.198zm-10.133 0H18.667v-7.469c0-3.854 2.125-5.865 5.333-5.865 3.21 0 5.334 2.011 5.334 5.865v7.469z"/></svg>