<svg viewBox="0 0 48 48" xmlns="http://www.w3.org/2000/svg" fill-rule="evenodd" clip-rule="evenodd" stroke-linejoin="round" stroke-miterlimit="1.414"><path d="M42.749 10.179c.501.501.929 1.18 1.286 2.037.356.857.535 1.643.536 2.357V45.43c0 .715-.25 1.321-.75 1.821a2.491 2.491 0 0 1-1.821.751H6a2.48 2.48 0 0 1-1.821-.751 2.49 2.49 0 0 1-.75-1.821V2.573c0-.714.25-1.321.75-1.82C4.68.253 5.287.003 6 .002h24c.714 0 1.5.179 2.357.536.857.358 1.536.787 2.037 1.286l8.355 8.355zM30.857 3.643v10.071h10.072c-.179-.517-.375-.884-.59-1.099l-8.385-8.384c-.213-.214-.58-.41-1.099-.59l.002.002zm10.286 40.928V17.143H30c-.714 0-1.321-.25-1.821-.751a2.489 2.489 0 0 1-.75-1.821V3.429H6.857v41.142h34.286zM27.375 28.687c.59.464 1.34.964 2.25 1.5A26.566 26.566 0 0 1 32.758 30c2.625 0 4.206.438 4.742 1.313.286.393.303.857.053 1.392 0 .018-.009.036-.027.053l-.053.053v.028c-.108.679-.742 1.018-1.902 1.018-.857 0-1.884-.179-3.08-.536a19.596 19.596 0 0 1-3.482-1.42c-3.946.429-7.446 1.17-10.5 2.224-2.732 4.678-4.893 7.018-6.482 7.018-.267 0-.517-.062-.75-.187l-.643-.321a3.52 3.52 0 0 0-.161-.133c-.179-.179-.232-.5-.162-.964.162-.714.662-1.531 1.5-2.451.839-.92 2.018-1.782 3.537-2.585.25-.161.455-.108.615.161.036.035.054.071.054.108.928-1.518 1.883-3.277 2.866-5.277 1.214-2.428 2.142-4.768 2.786-7.018a21.613 21.613 0 0 1-.818-4.272c-.117-1.384-.058-2.522.175-3.415.196-.714.571-1.071 1.124-1.071h.59c.41 0 .723.133.938.401.321.375.401.982.241 1.82a.55.55 0 0 1-.108.215.656.656 0 0 1 .028.214v.804c-.036 2.197-.161 3.911-.376 5.143.982 2.928 2.286 5.053 3.911 6.375l.001-.003zM11.947 39.696c.928-.429 2.151-1.839 3.67-4.233a15.24 15.24 0 0 0-2.343 2.251c-.652.787-1.093 1.447-1.325 1.982h-.002zm10.661-24.643c-.267.75-.285 1.929-.053 3.537.018-.125.08-.518.187-1.18 0-.053.062-.437.187-1.152a.592.592 0 0 1 .108-.214c-.019-.018-.028-.036-.028-.053s-.004-.03-.014-.04c-.009-.009-.013-.022-.013-.039-.019-.393-.135-.714-.348-.963 0 .018-.009.036-.028.053v.053l.002-.002zm-3.322 17.705a39.266 39.266 0 0 1 7.608-2.17 4.11 4.11 0 0 1-.348-.254 4.466 4.466 0 0 1-.429-.361c-1.358-1.197-2.491-2.768-3.401-4.715-.482 1.536-1.223 3.295-2.223 5.277-.536 1-.938 1.741-1.206 2.223h-.001zm17.304-.428c-.429-.429-1.679-.643-3.751-.643 1.358.5 2.464.751 3.32.751.251 0 .411-.009.482-.028 0-.018-.018-.045-.053-.08h.002z" fill-rule="nonzero"/></svg>