<svg viewBox="0 0 48 48" xmlns="http://www.w3.org/2000/svg" fill-rule="evenodd" clip-rule="evenodd" stroke-linejoin="round" stroke-miterlimit="1.414"><path d="M42.71 40.923c-.183-11.293-1.697-14.51-13.279-16.547 0 0-1.63 2.024-5.431 2.024-3.8 0-5.43-2.024-5.43-2.024C7.114 26.39 5.508 29.56 5.297 40.556c-.017.898-.025.945-.028.841l.001 1.186S8.028 48 24 48c15.973 0 18.731-5.417 18.731-5.417v-.877c-.003.064-.009-.061-.021-.783zM24 23.475c5.477 0 9.917-5.255 9.917-11.737C33.917 5.255 32.46 0 24 0c-8.459 0-9.917 5.255-9.917 11.738 0 6.482 4.44 11.737 9.917 11.737z"/></svg>