<svg viewBox="0 0 48 48" xmlns="http://www.w3.org/2000/svg" fill-rule="evenodd" clip-rule="evenodd" stroke-linejoin="round" stroke-miterlimit="1.414"><path d="M40.094 12.913L29 24.007 40.094 35.1l4.5-4.5c.604-.646 1.333-.791 2.187-.437.813.354 1.219.969 1.219 1.843v14.001c0 .541-.198 1.01-.594 1.406a1.92 1.92 0 0 1-1.406.594H32c-.875 0-1.49-.417-1.844-1.25-.354-.813-.208-1.532.438-2.157l4.5-4.5L24 29.006 12.906 40.1l4.5 4.5c.646.625.792 1.344.438 2.157-.354.833-.969 1.25-1.844 1.25H2a1.92 1.92 0 0 1-1.406-.594A1.922 1.922 0 0 1 0 46.007V32.006c0-.874.417-1.489 1.25-1.843.813-.354 1.531-.209 2.156.437l4.5 4.5L19 24.007 7.906 12.913l-4.5 4.5a1.92 1.92 0 0 1-2.156.437C.417 17.496 0 16.882 0 16.007v-14C0 1.465.198.996.594.6A1.92 1.92 0 0 1 2 .007h14c.875 0 1.49.416 1.844 1.25.354.812.208 1.531-.438 2.156l-4.5 4.5L24 19.007 35.094 7.913l-4.5-4.5c-.646-.625-.792-1.344-.438-2.156.354-.834.969-1.25 1.844-1.25h14c.542 0 1.01.197 1.406.593.396.396.594.865.594 1.407v14c0 .875-.406 1.489-1.219 1.843a2.178 2.178 0 0 1-.781.157 1.92 1.92 0 0 1-1.406-.594l-4.5-4.5z"/></svg>