<svg viewBox="0 0 48 48" xmlns="http://www.w3.org/2000/svg" fill-rule="evenodd" clip-rule="evenodd" stroke-linejoin="round" stroke-miterlimit="1.414"><path d="M41.994 46.476H6.006A5.996 5.996 0 0 1 0 40.483V7.517a5.996 5.996 0 0 1 6.006-5.993h35.988A5.996 5.996 0 0 1 48 7.517v32.966a5.996 5.996 0 0 1-6.006 5.993zM15.001 43.48V4.52H6.006A2.998 2.998 0 0 0 3 7.517v32.966a2.998 2.998 0 0 0 3.006 2.997h8.995zM16.5 4.52v38.958h-1.499l.001.002H16.5v-.002h.001V4.52H16.5zm.001 38.958v.002h1.498l.001-.002h-1.499zM41.994 4.52H18v38.96h23.994A2.998 2.998 0 0 0 45 40.483V7.517a3 3 0 0 0-3.006-2.997z"/></svg>