<svg viewBox="0 0 48 48" xmlns="http://www.w3.org/2000/svg" fill-rule="evenodd" clip-rule="evenodd" stroke-linejoin="round" stroke-miterlimit="1.414"><path d="M43.143 23.147V46.69c0 .709-.6 1.31-1.31 1.31H6.167c-.71 0-1.31-.601-1.31-1.31V1.302A1.32 1.32 0 0 1 6.158 0h22.831c.054 0 .054.054.109.054.325 0 .596.109.813.326l12.853 12.852c.217.217.325.542.325.814 0 .054.054.054.054.108v8.993zm-2.603-.886v-6.805H28.989a1.32 1.32 0 0 1-1.301-1.302V2.603H7.46v18.424a.731.731 0 0 1 .017.172V45.38h14.406l.046-.039 18.594.039V22.433c0-.071.006-.128.017-.172zm-28.722 17.11c0-.599.487-1.085 1.078-1.085h22.208a1.08 1.08 0 0 1 1.078 1.085c0 .599-.487 1.085-1.078 1.085H12.896a1.08 1.08 0 0 1-1.078-1.085zm0-6.265c0-.599.487-1.085 1.078-1.085h22.208a1.08 1.08 0 0 1 1.078 1.085c0 .599-.487 1.085-1.078 1.085H12.896a1.08 1.08 0 0 1-1.078-1.085zm0-6.265c0-.599.487-1.085 1.078-1.085h22.208a1.08 1.08 0 0 1 1.078 1.085c0 .599-.487 1.085-1.078 1.085H12.896a1.08 1.08 0 0 1-1.078-1.085zm0-6.265c0-.599.487-1.085 1.078-1.085h22.208a1.08 1.08 0 0 1 1.078 1.085c0 .599-.487 1.085-1.078 1.085H12.896a1.08 1.08 0 0 1-1.078-1.085zm0-6.265c0-.599.493-1.085 1.081-1.085h10.02A1.08 1.08 0 0 1 24 14.311c0 .599-.493 1.084-1.081 1.084h-10.02a1.08 1.08 0 0 1-1.081-1.084zm0-6.265c0-.599.493-1.085 1.081-1.085h10.02A1.08 1.08 0 0 1 24 8.046c0 .599-.493 1.084-1.081 1.084h-10.02a1.08 1.08 0 0 1-1.081-1.084zm26.824 4.752l-4.176-4.175-4.175-4.176v8.351h8.351z"/></svg>