<svg viewBox="0 0 48 48" xmlns="http://www.w3.org/2000/svg" fill-rule="evenodd" clip-rule="evenodd" stroke-linejoin="round" stroke-miterlimit="1.414"><path d="M42.833 11.081C41.601 3.792 34.949-1.081 27.972.207c-6.979 1.286-12.87 6.896-11.638 14.19.261 1.569.999 4.026 1.867 5.791L5.529 39.099c-.468.697-.732 1.956-.592 2.794l.816 4.826c.141.838.91 1.401 1.714 1.258l3.711-.687c.804-.145 1.823-.852 2.264-1.564l5.011-8.109.045-.053 3.393-.627 5.853-9.499c1.922.34 4.682.225 6.312-.075 6.975-1.288 10.008-8.987 8.777-16.283zm-6.183 3.74c-1.92 2.865-3.879.847-6.618-1.163-2.741-2.004-5.229-3.237-3.311-6.102 1.919-2.865 5.696-3.564 8.441-1.555 2.742 2.005 3.405 5.955 1.488 8.82z"/></svg>