<svg viewBox="0 0 48 48" xmlns="http://www.w3.org/2000/svg" fill-rule="evenodd" clip-rule="evenodd" stroke-linejoin="round" stroke-miterlimit="1.414"><path d="M11.955 21.434L28.288 5.101c.322-.321.482-.69.482-1.107 0-.416-.16-.785-.482-1.107L25.883.482C25.562.161 25.193 0 24.776 0c-.416 0-.785.161-1.107.482L1.258 22.893c-.321.321-.482.69-.482 1.107 0 .417.161.786.482 1.107l22.411 22.411c.322.321.691.482 1.107.482.417 0 .786-.161 1.107-.482l2.405-2.405v.005c.322-.321.482-.69.482-1.107 0-.416-.16-.785-.482-1.107l-16.01-16.01 33.58.265c.383.008.705-.122.966-.389s.394-.594.4-.98l-.039-2.743a1.212 1.212 0 0 0-.379-.936 1.371 1.371 0 0 0-.973-.41l-33.878-.267z"/></svg>