<svg viewBox="0 0 48 48" xmlns="http://www.w3.org/2000/svg" fill-rule="evenodd" clip-rule="evenodd" stroke-linejoin="round" stroke-miterlimit="1.414"><path d="M41.355 0v46.437c0 1.093-.781 1.563-1.563 1.563-.47 0-.939-.158-1.251-.47L24 35.96 9.459 47.53c-.313.314-.625.47-1.095.47-.938 0-1.719-.626-1.719-1.563V0h34.71zM8.988 2.346v42.528l13.603-10.789 1.407-1.095 1.408 1.095 13.603 10.789V2.346H8.988zm21.271 27.049h-.005c-.312 0-.625 0-.781-.156l-5.317-2.97-5.159 2.814c-.626.312-1.563.156-2.033-.469-.312-.312-.469-.938-.312-1.251l1.095-5.785-4.377-4.065c-.47-.312-.626-.938-.47-1.563.156-.626.626-1.096 1.408-1.252l5.942-.781L22.752 8.6c.156-.469.781-.937 1.407-.937s1.251.312 1.563.937l2.502 5.629 5.942.781c.782.156 1.252.626 1.408 1.252.156.625-.156 1.251-.626 1.563l-4.221 3.909 1.095 5.785c.156.469 0 .937-.312 1.251-.312.313-.782.625-1.251.625zM16.181 17.043l4.066 3.752-1.095 5.472 5.002-2.658 5.003 2.658-1.095-5.472 4.066-3.752-5.473-.625-2.502-5.159-2.502 5.159-5.473.625h.003z"/></svg>