<svg viewBox="0 0 48 48" xmlns="http://www.w3.org/2000/svg" fill-rule="evenodd" clip-rule="evenodd" stroke-linejoin="round" stroke-miterlimit="1.414"><path d="M.881 46.48c-.334-.534-.571-.981-.711-1.34-.289-.709-.209-1.846.24-3.413.429-1.447 1.102-2.63 2.021-3.548.269-.269.548-.514.838-.733.289-.22.638-.445 1.048-.674.409-.23.718-.394.928-.494.209-.1.589-.274 1.137-.524.549-.249.884-.404 1.003-.464 1.328-.629 2.615-1.088 3.863-1.377 2.065-.489 4.46-.734 7.185-.734 2.724 0 5.119.245 7.185.734 1.248.289 2.535.748 3.862 1.377.12.06.454.215 1.003.464.549.25.928.424 1.138.524.21.1.519.264.928.494.409.229.758.454 1.048.674.289.219.569.464.838.733.918.918 1.592 2.101 2.021 3.548.449 1.567.529 2.704.24 3.413-.14.359-.377.806-.711 1.34-.335.534-.637.935-.906 1.205-.14.139-.26.229-.359.269-.24.12-.884.005-1.931-.344-.3-.08-.719-.2-1.258-.359-.539-.16-1.03-.302-1.474-.427a45.4 45.4 0 0 0-1.265-.337 25.11 25.11 0 0 1-.636-.112 5.907 5.907 0 0 1-.854-.21 1.384 1.384 0 0 1-.531-.322c-.2-.199-.307-.591-.322-1.175a10.3 10.3 0 0 1 .105-1.751c.085-.584.13-1.158.134-1.722.005-.563-.082-.935-.261-1.115a1.444 1.444 0 0 0-.412-.262 4.573 4.573 0 0 0-.434-.179 7.816 7.816 0 0 0-.569-.15 12.653 12.653 0 0 1-.457-.112c-2.125-.609-4.166-.913-6.122-.913-1.956 0-3.997.304-6.123.913-.03.01-.182.047-.456.112a7.672 7.672 0 0 0-.569.15c-.105.035-.25.094-.434.179a1.43 1.43 0 0 0-.412.262c-.179.18-.267.552-.262 1.115.005.564.05 1.138.135 1.722a10.3 10.3 0 0 1 .105 1.751c-.015.584-.123.976-.322 1.175a1.38 1.38 0 0 1-.532.322 5.889 5.889 0 0 1-.853.21 25.11 25.11 0 0 1-.636.112 45.4 45.4 0 0 0-1.265.337c-.444.125-.936.267-1.474.427-.539.159-.958.279-1.258.359-1.048.349-1.691.464-1.931.344-.1-.04-.219-.13-.359-.269-.27-.27-.572-.671-.906-1.205zm4.736-31.103v16.692c0 .554-.469 1.022-1.022 1.022a1.036 1.036 0 0 1-1.022-1.022V14.355c0-.553.468-1.022 1.022-1.022h17.927c.042 0 .042.043.085.043a.87.87 0 0 1 .639.255l10.092 10.092c.17.171.255.426.255.639 0 .043.043.043.043.085v7.622c0 .554-.469 1.022-1.022 1.022a1.036 1.036 0 0 1-1.022-1.022v-6.6h-9.07a1.036 1.036 0 0 1-1.022-1.022v-9.07H5.617zm22.599 14.89H8.853a.85.85 0 0 1-.852-.851c0-.471.384-.852.852-.852h19.363a.852.852 0 0 1 0 1.703zm-9.994-4.697h-9.37a.852.852 0 1 1 0-1.704h9.37a.852.852 0 1 1 0 1.704zm11.879-2.187l-3.278-3.279-3.279-3.279v6.558h6.557zm-11.879-2.64h-9.37a.852.852 0 1 1 0-1.704h9.37a.852.852 0 1 1 0 1.704zm15.518-4.744c-.461.013-.868-.157-1.221-.509A1.683 1.683 0 0 1 32 14.259V1.74c.013-.487.186-.897.519-1.23A1.726 1.726 0 0 1 33.74 0h1.443c.487 0 .9.17 1.24.51.34.339.509.753.509 1.24v5.634L43.701.615c.334-.333.725-.484 1.173-.452a1.82 1.82 0 0 1 1.183.558l1.231 1.231c.34.34.525.734.557 1.182.033.449-.118.84-.451 1.174l-6.769 6.768 5.644.01c.474-.013.884.154 1.23.5s.513.756.5 1.231v1.442c0 .487-.166.897-.5 1.231a1.689 1.689 0 0 1-1.24.509H33.74z"/></svg>