<svg viewBox="0 0 48 48" xmlns="http://www.w3.org/2000/svg" fill-rule="evenodd" clip-rule="evenodd" stroke-linejoin="round" stroke-miterlimit="1.414"><path d="M27.309 42.014V48h-5.332v-5.715c-4.567-.267-8.177-1.57-11.311-4.791l4.581-4.641c2.291 2.32 5.396 3.093 8.753 3.093 4.173 0 6.414-1.596 6.414-4.537 0-1.289-.356-2.372-1.121-3.095-.712-.669-1.525-1.032-3.205-1.287l-4.379-.619c-3.103-.464-5.392-1.442-7.024-3.043-1.728-1.752-2.595-4.123-2.595-7.219 0-5.747 3.686-9.981 9.887-10.932V0h5.332v5.153c3.686.385 6.573 1.652 9.106 4.135l-4.477 4.485c-2.29-2.219-5.037-2.524-7.431-2.524-3.765 0-5.598 2.111-5.598 4.639 0 .929.308 1.91 1.07 2.63.712.672 1.882 1.237 3.36 1.443l4.272.618c3.309.463 5.395 1.392 6.922 2.835 1.937 1.855 2.801 4.539 2.801 7.786 0 6-4.179 9.765-10.025 10.814z"/></svg>