<svg viewBox="0 0 48 48" xmlns="http://www.w3.org/2000/svg" fill-rule="evenodd" clip-rule="evenodd" stroke-linejoin="round" stroke-miterlimit="1.414"><path d="M24.003 18.261A5.742 5.742 0 0 0 18.261 24a5.742 5.742 0 0 0 5.742 5.739A5.736 5.736 0 0 0 29.739 24a5.736 5.736 0 0 0-5.736-5.739zm-18.261 0A5.742 5.742 0 0 0 0 24a5.738 5.738 0 1 0 11.478 0 5.738 5.738 0 0 0-5.736-5.739zm36.522 0A5.742 5.742 0 0 0 36.522 24a5.742 5.742 0 0 0 5.742 5.739A5.736 5.736 0 0 0 48 24a5.736 5.736 0 0 0-5.736-5.739z"/></svg>