<svg viewBox="0 0 48 48" xmlns="http://www.w3.org/2000/svg" fill-rule="evenodd" clip-rule="evenodd" stroke-linejoin="round" stroke-miterlimit="1.414"><path d="M46.559 1.31c1.847 1.804 1.992 4.316 0 6.522L31.036 24.004l15.523 16.172c1.992 2.206 1.847 4.722 0 6.514-1.844 1.804-4.959 1.688-6.691 0-1.731-1.68-18.65-19.429-18.65-19.429a4.528 4.528 0 0 1-1.388-3.257 4.56 4.56 0 0 1 1.388-3.265S38.137 2.998 39.868 1.31c1.732-1.688 4.847-1.804 6.691 0zm-19.83 0c1.847 1.804 1.992 4.316 0 6.522L11.206 24.004l15.523 16.172c1.992 2.206 1.847 4.722 0 6.514-1.844 1.804-4.959 1.688-6.691 0-1.731-1.68-18.65-19.429-18.65-19.429A4.528 4.528 0 0 1 0 24.004a4.56 4.56 0 0 1 1.388-3.265S18.307 2.998 20.038 1.31c1.732-1.688 4.847-1.804 6.691 0z"/></svg>