<svg viewBox="0 0 48 48" xmlns="http://www.w3.org/2000/svg" fill-rule="evenodd" clip-rule="evenodd" stroke-linejoin="round" stroke-miterlimit="1.414"><path d="M34.39 21H13.61c-.82 0-1.484.672-1.484 1.5 0 .83.664 1.5 1.484 1.5h20.78c.82 0 1.484-.67 1.484-1.5 0-.828-.664-1.5-1.484-1.5zm7.421 21c0 1.656-1.33 3-2.969 3H9.158c-1.639 0-2.969-1.344-2.969-3V12c0-1.656 1.33-3 2.969-3h4.452v6h20.78V9h4.452c1.639 0 2.969 1.344 2.969 3v30zM16.579 6h3.299c0-1.656 1.845-3 4.122-3s4.122 1.344 4.122 3h3.299v6H16.579V6zm22.263 0H34.39V3h-3.997C29.106 1.215 26.74 0 24 0c-2.74 0-5.106 1.215-6.393 3H13.61v3H9.158c-3.279 0-5.937 2.686-5.937 6v30c0 3.314 2.658 6 5.937 6h29.684c3.279 0 5.937-2.686 5.937-6V12c0-3.314-2.658-6-5.937-6zM34.39 36H13.61c-.82 0-1.484.672-1.484 1.5 0 .83.664 1.5 1.484 1.5h20.78c.82 0 1.484-.67 1.484-1.5 0-.828-.664-1.5-1.484-1.5zm0-7.5H13.61c-.82 0-1.484.672-1.484 1.5 0 .83.664 1.5 1.484 1.5h20.78c.82 0 1.484-.67 1.484-1.5 0-.828-.664-1.5-1.484-1.5z"/></svg>