<svg viewBox="0 0 48 48" xmlns="http://www.w3.org/2000/svg" fill-rule="evenodd" clip-rule="evenodd" stroke-linejoin="round" stroke-miterlimit="1.414"><path d="M18 39.007v-22a.974.974 0 0 0-.281-.719.973.973 0 0 0-.719-.282h-2a.973.973 0 0 0-.719.282.974.974 0 0 0-.281.719v22c0 .291.094.531.281.718a.973.973 0 0 0 .719.282h2a.973.973 0 0 0 .719-.282.974.974 0 0 0 .281-.718zm8 0v-22a.974.974 0 0 0-.281-.719.973.973 0 0 0-.719-.282h-2a.973.973 0 0 0-.719.282.974.974 0 0 0-.281.719v22c0 .291.094.531.281.718a.973.973 0 0 0 .719.282h2a.973.973 0 0 0 .719-.282.974.974 0 0 0 .281-.718zm8 0v-22a.974.974 0 0 0-.281-.719.973.973 0 0 0-.719-.282h-2a.973.973 0 0 0-.719.282.974.974 0 0 0-.281.719v22c0 .291.094.531.281.718a.973.973 0 0 0 .719.282h2a.973.973 0 0 0 .719-.282.974.974 0 0 0 .281-.718zm-17-31h14L29.5 4.35a.88.88 0 0 0-.531-.343h-9.906a.88.88 0 0 0-.532.343L17 8.007zm29 .999v2a.974.974 0 0 1-.281.719.972.972 0 0 1-.719.281h-3v29.625c0 1.73-.49 3.224-1.469 4.485-.979 1.26-2.156 1.89-3.531 1.89H11c-1.375 0-2.552-.609-3.531-1.828C6.49 44.96 6 43.486 6 41.756v-29.75H3a.972.972 0 0 1-.719-.281.974.974 0 0 1-.281-.719v-2c0-.291.094-.531.281-.718A.973.973 0 0 1 3 8.006h9.656l2.188-5.218c.312-.771.875-1.427 1.687-1.969C17.344.277 18.167.006 19 .006h10c.833 0 1.656.271 2.469.813.812.542 1.375 1.198 1.687 1.969l2.188 5.218H45c.292 0 .531.094.719.282a.974.974 0 0 1 .281.718z"/></svg>