<svg viewBox="0 0 48 48" xmlns="http://www.w3.org/2000/svg" fill-rule="evenodd" clip-rule="evenodd" stroke-linejoin="round" stroke-miterlimit="1.414"><path d="M31.999 24.796a.765.765 0 0 0-.226-.571l-8.799-8.761a.78.78 0 0 0-.575-.225.778.778 0 0 0-.574.225l-8.774 8.735c-.167.199-.25.398-.25.597 0 .233.075.424.226.572.15.149.342.224.574.225h5.6v8.761a.77.77 0 0 0 .237.561.762.762 0 0 0 .563.235h4.8a.775.775 0 0 0 .563-.235.76.76 0 0 0 .237-.561v-8.761h5.6a.776.776 0 0 0 .563-.236.756.756 0 0 0 .237-.561h-.002zm15.999 7.168c0 2.638-.937 4.891-2.812 6.758-1.875 1.866-4.138 2.8-6.787 2.8H11.2c-3.084 0-5.721-1.091-7.912-3.274C1.097 36.066.001 33.441 0 30.372c0-2.157.583-4.148 1.75-5.974a10.925 10.925 0 0 1 4.701-4.106c-.033-.498-.05-.855-.05-1.071 0-3.518 1.25-6.521 3.751-9.009 2.5-2.488 5.516-3.733 9.049-3.734 2.6 0 4.98.722 7.137 2.165 2.158 1.443 3.729 3.359 4.712 5.749 1.183-1.029 2.566-1.544 4.15-1.544 1.767 0 3.275.622 4.525 1.867 1.25 1.245 1.875 2.746 1.875 4.505a6.072 6.072 0 0 1-1.025 3.434c2.166.514 3.945 1.638 5.337 3.372S48 29.739 48 31.963l-.002.001z"/></svg>