<svg viewBox="0 0 48 48" xmlns="http://www.w3.org/2000/svg" fill-rule="evenodd" clip-rule="evenodd" stroke-linejoin="round" stroke-miterlimit="1.414"><path d="M41.72 48H29.818c-.406 0-.756-.146-1.049-.439a1.432 1.432 0 0 1-.438-1.049c0-.297.074-.565.223-.803l10.428-16.067h-8.42a1.43 1.43 0 0 1-1.049-.439 1.433 1.433 0 0 1-.439-1.049c0-.416.147-.768.439-1.056a1.442 1.442 0 0 1 1.049-.431H41.72c.416 0 .768.143 1.056.431.288.288.431.64.431 1.056 0 .377-.099.719-.297 1.027L32.541 45.025h9.179c.416 0 .768.143 1.056.431.288.288.431.64.431 1.056 0 .407-.143.757-.431 1.049-.288.293-.64.439-1.056.439zM1.509 37.248H8.97V.139h5.969v37.109H22.4L11.954 47.683 1.509 37.248zm29.466-21.865l-2.47 5.087a1.67 1.67 0 0 1-.297.432c-.298.288-.65.431-1.056.431-.417 0-.769-.146-1.057-.439a1.444 1.444 0 0 1-.431-1.048c0-.288.074-.546.223-.774L34.709.893c.069-.159.174-.308.312-.447.288-.297.64-.446 1.057-.446.406 0 .758.149 1.056.446a1.5 1.5 0 0 1 .283.387l8.822 18.18c.168.238.252.515.252.833 0 .406-.146.756-.438 1.048a1.432 1.432 0 0 1-1.049.439c-.417 0-.769-.143-1.057-.431a1.696 1.696 0 0 1-.297-.432h-.015l-2.469-5.087H30.975zm8.747-2.976l-3.644-7.513-3.66 7.513h7.304z"/></svg>