<svg viewBox="0 0 48 48" xmlns="http://www.w3.org/2000/svg" fill-rule="evenodd" clip-rule="evenodd" stroke-linejoin="round" stroke-miterlimit="1.414"><path d="M47.219 29.007a.546.546 0 0 1-.031.218c-1.334 5.584-4.125 10.11-8.375 13.578-4.25 3.469-9.23 5.204-14.938 5.204-3.042 0-5.984-.573-8.828-1.719a23.866 23.866 0 0 1-7.61-4.906l-4.031 4.031A1.92 1.92 0 0 1 2 46.007a1.92 1.92 0 0 1-1.406-.594A1.922 1.922 0 0 1 0 44.007v-14c0-.542.198-1.011.594-1.407A1.924 1.924 0 0 1 2 28.007h14c.542 0 1.01.198 1.406.593.396.396.594.865.594 1.407 0 .541-.198 1.01-.594 1.406l-4.281 4.281a16.12 16.12 0 0 0 5.031 3.188A15.595 15.595 0 0 0 24 40.007c2.792 0 5.396-.677 7.812-2.032a15.749 15.749 0 0 0 5.813-5.593c.229-.355.781-1.573 1.656-3.657.167-.479.479-.718.938-.718h6c.271 0 .505.099.703.296a.963.963 0 0 1 .297.704zm.781-25v14c0 .541-.198 1.01-.594 1.406a1.92 1.92 0 0 1-1.406.594H32a1.92 1.92 0 0 1-1.406-.594A1.922 1.922 0 0 1 30 18.007c0-.542.198-1.011.594-1.407l4.312-4.312C31.823 9.434 28.188 8.007 24 8.007c-2.792 0-5.396.677-7.813 2.031a15.756 15.756 0 0 0-5.812 5.594c-.229.354-.781 1.572-1.656 3.656-.167.479-.479.719-.938.719H1.562a.962.962 0 0 1-.703-.297.962.962 0 0 1-.297-.703v-.219C1.917 13.204 4.729 8.678 9 5.21 13.271 1.741 18.271.007 24 .007c3.042 0 6 .578 8.875 1.734a24.19 24.19 0 0 1 7.656 4.891L44.594 2.6A1.92 1.92 0 0 1 46 2.007c.542 0 1.01.197 1.406.593.396.396.594.865.594 1.407z"/></svg>