<svg viewBox="0 0 48 48" xmlns="http://www.w3.org/2000/svg" fill-rule="evenodd" clip-rule="evenodd" stroke-linejoin="round" stroke-miterlimit="1.414"><path d="M24.013 47.163c12.701 0 23-10.296 23-23.002 0-12.704-10.299-23-23-23-12.705 0-23 10.296-23 23-.004 12.706 10.294 23.002 23 23.002z" fill="#fff"/><path d="M24 0c13.256 0 24 10.747 24 24 0 13.258-10.744 23.998-24 23.998-13.253 0-24-10.74-24-23.998C.001 10.747 10.747 0 24 0zm0 44.886c11.534 0 20.886-9.35 20.886-20.886S35.534 3.114 24 3.114C12.463 3.114 3.116 12.464 3.116 24 3.112 35.536 12.463 44.886 24 44.886z"/><path d="M37.654 16.892L24.013 33.626l-3.111 4.064-3.829-3.347-7.419-5.977 3.351-4.063 7.179 6.215 13.402-16.734 4.068 3.108z"/></svg>