<svg viewBox="0 0 48 48" xmlns="http://www.w3.org/2000/svg" fill-rule="evenodd" clip-rule="evenodd" stroke-linejoin="round" stroke-miterlimit="1.414"><path d="M34.304 11.094c-2.009-.505-8.527.256-8.723-.461-.4-1.47.508-4.679-.298-6.267 0 0-15.709-3.334-20.627-2.713-.186.023.661.036-.314.036C-.56 1.689.028 5.716.028 5.716L0 46.361l4.789.063V35.227s-.139-.474.436-.788c3.053-1.653 14.885-9.303 20.35-8.52l.021 4.653C42.562 28.524 48 15.083 48 15.083c-6.432 2.167-8.338-2.649-13.696-3.989zM4.994 30.196c-.206.513-.205.231-.205.231V6.434c0-.138-.278-1.531.206-.136 6.128 9.692 4.187 13.542-.001 23.898z"/></svg>