<svg viewBox="0 0 48 48" xmlns="http://www.w3.org/2000/svg" fill-rule="evenodd" clip-rule="evenodd" stroke-linejoin="round" stroke-miterlimit="1.414"><path d="M23.806 0C13.528.424 3.277 3.618 3.277 3.618l3.496 33.961C11.752 42.56 23.912 48 23.912 48s15.653-7.184 17.262-10.509c1.29-6.124 3.549-33.949 3.549-33.949C36.488 1.031 23.806 0 23.806 0zm5.421 27.53c.005-.001 1.637-.127 1.637-1.786V11.915s.025-1.574-1.637-1.574H18.865s-1.805.24-1.805 1.733v23.911s.583 1.832 1.746 1.832l.176-.009s1.595-.519 1.595-1.679V27.53h8.65zm-2.562-13.813c.367 0 .665.297.665.665v8.989a.663.663 0 0 1-.665.663h-5.426a.662.662 0 0 1-.661-.663v-8.989c0-.368.296-.665.661-.665h5.426z"/></svg>