<svg viewBox="0 0 48 48" xmlns="http://www.w3.org/2000/svg" fill-rule="evenodd" clip-rule="evenodd" stroke-linejoin="round" stroke-miterlimit="1.414"><path d="M45.761 31.959a4.518 4.518 0 0 0-3.771-.343l-1.028.429a2.503 2.503 0 0 1 1.627-2.142c1.457-.6 1.714-1.97.686-3.086-1.114-1.113-1.028-2.827.171-3.856 1.2-1.03 1.028-2.399-.342-3.172-1.371-.685-1.885-2.398-1.114-3.685.771-1.371.171-2.656-1.371-2.827-1.542-.257-2.57-1.628-2.228-3.171.343-1.544-.685-2.571-2.227-2.228-1.542.257-2.914-.771-3.171-2.313-.172-1.542-1.457-2.142-2.829-1.371-1.372.771-3 .257-3.685-1.114-.686-1.37-2.056-1.542-3.086-.428-1.028 1.2-2.743 1.2-3.856.086-1.114-1.114-2.485-.771-3.086.599-.6 1.457-2.228 2.057-3.6 1.371-1.372-.685-2.656 0-2.741 1.628-.086 1.542-1.457 2.656-3 2.485-1.544-.172-2.485.856-2.056 2.398.428 1.542-.514 3-1.971 3.343-1.542.343-2.056 1.628-1.199 2.914.857 1.287.514 3-.857 3.771-1.285.771-1.371 2.228-.171 3.172 1.285.942 1.456 2.655.428 3.856s-.6 2.57.857 3c1.456.429 2.227 2.056 1.713 3.514-.514 1.458.257 2.656 1.799 2.57 1.543 0 2.742 1.2 2.742 2.743-.086 1.542 1.114 2.399 2.57 1.885 1.457-.514 3 .257 3.514 1.713.428 1.457 1.799 1.885 3 .943 1.201-.943 2.914-.771 3.857.514.942 1.285 2.313 1.199 3.171-.086.858-1.285 2.57-1.628 3.771-.771 1.285.857 2.57.343 2.914-1.114a2.642 2.642 0 0 1 3.343-1.97c1.458.428 2.57-.514 2.399-2.056-.086-.771.171-1.542.685-2.056l1.285-.343c.257 1.285.943 2.399 2.142 3.086a4.53 4.53 0 0 0 6.255-1.628c1.371-2.228.686-4.971-1.542-6.256l.002-.004zm-11.569-3.941l-11.054-6.084c-.086-1.885-1.029-3.685-2.743-4.713a5.621 5.621 0 0 0-5.999.171l3.257 1.885a2.473 2.473 0 0 1 .771 3.428c-.685 1.2-2.227 1.628-3.342.942l-3.257-1.884c-.172 2.056.856 4.199 2.743 5.313 1.713 1.028 3.856 1.028 5.484.171l10.883 5.827a13.16 13.16 0 0 1-5.656 3.172c-6.855 1.799-13.797-2.399-15.596-9.17-1.799-6.855 2.399-13.798 9.255-15.597 6.857-1.799 13.798 2.399 15.597 9.256.6 2.398.428 4.97-.343 7.283zm2.829 1.714l-1.2-.686c1.028-2.743 1.285-5.827.514-8.827A14.774 14.774 0 0 0 18.426 9.593a14.774 14.774 0 0 0-10.627 17.91c2.057 7.883 10.027 12.596 17.91 10.54 2.743-.685 5.056-2.142 6.855-4.028l1.2.686c-2.056 2.141-4.628 3.771-7.712 4.627-8.57 2.228-17.31-3-19.539-11.568-2.229-8.569 3-17.31 11.568-19.539 8.571-2.228 17.311 3 19.539 11.568.943 3.429.6 6.856-.599 9.941v.002zm8.483 7.369L43.362 38.3l-2.056-1.199v-2.399l2.056-1.199 2.056 1.199.086 2.399z" fill-rule="nonzero"/></svg>