<svg viewBox="0 0 48 48" xmlns="http://www.w3.org/2000/svg" fill-rule="evenodd" clip-rule="evenodd" stroke-linejoin="round" stroke-miterlimit="1.414"><path d="M47.962 37.989v3.997c0 .541-.197 1.01-.593 1.405a1.918 1.918 0 0 1-1.405.593H1.998a1.92 1.92 0 0 1-1.405-.593A1.921 1.921 0 0 1 0 41.986v-3.997c0-.541.198-1.01.593-1.405a1.92 1.92 0 0 1 1.405-.593h43.966c.541 0 1.01.197 1.405.593.396.395.593.864.593 1.405zm0-15.987v3.996a1.92 1.92 0 0 1-.593 1.406 1.921 1.921 0 0 1-1.405.593H1.998a1.923 1.923 0 0 1-1.405-.593A1.924 1.924 0 0 1 0 25.998v-3.996c0-.542.198-1.01.593-1.406a1.923 1.923 0 0 1 1.405-.593h43.966c.541 0 1.01.198 1.405.593.396.396.593.864.593 1.406zm0-15.988v3.997c0 .541-.197 1.01-.593 1.405a1.918 1.918 0 0 1-1.405.593H1.998a1.92 1.92 0 0 1-1.405-.593A1.921 1.921 0 0 1 0 10.011V6.014c0-.541.198-1.01.593-1.405a1.92 1.92 0 0 1 1.405-.593h43.966c.541 0 1.01.197 1.405.593.396.395.593.864.593 1.405z"/></svg>