<svg viewBox="0 0 48 48" xmlns="http://www.w3.org/2000/svg" fill-rule="evenodd" clip-rule="evenodd" stroke-linejoin="round" stroke-miterlimit="1.414"><path d="M36.75 25.5c-6.211 0-11.25 5.039-11.25 11.25S30.539 48 36.75 48 48 42.961 48 36.75 42.961 25.5 36.75 25.5zM24.821 0c.95.227 2.146.731 3.042 1.88l5.306 5.746 1.794 1.934s.77.783.983 2.319l.002.019c.051.393.072.827.029 1.303l-.031.064v8.432c-.94.023-1.869.129-2.775.323V11.87h-7.506a1.548 1.548 0 0 1-1.537-1.547V2.795H3.066c-.16 0-.298.14-.298.3v41.811c0 .161.138.3.298.3h21.778c.352.463.747.904 1.163 1.322A14.812 14.812 0 0 0 27.714 48H3.064c-.107 0-.202 0-.31-.011a3.377 3.377 0 0 1-.449-.085c-.149-.042-.287-.096-.426-.15a3.113 3.113 0 0 1-1.666-1.719A3.048 3.048 0 0 1 0 44.906V3.083c0-.397.075-.774.213-1.128a2.63 2.63 0 0 1 .31-.591A3.11 3.11 0 0 1 1.889.246c.139-.064.278-.106.427-.15.139-.042.3-.075.449-.085.097 0 .203-.011.31-.011h21.746zm11.855 40.235l-1.5 1.87-1.849-1.542-3.434-2.883 1.542-1.839 3.401 2.852 6.297-7.806 1.869 1.501-6.327 7.849.001-.002zm-28-2.721h13.508c.044 1.013.153 2.014.316 2.986H8.676c-.653 0-1.176-.668-1.176-1.5s.534-1.5 1.176-1.5v.014zM23.076 33H8.702c-.667 0-1.202-.668-1.202-1.5S8.046 30 8.702 30v.014H24A22.212 22.212 0 0 0 23.076 33zm4.27-10.5c.64 0 1.152.681 1.153 1.5h.001c0 .14-.012.277-.043.417-.395.332-.768.695-1.143 1.083H8.653c-.64 0-1.153-.668-1.153-1.5s.523-1.5 1.153-1.5h18.693zM18.373 18H8.627c-.621 0-1.127-.674-1.127-1.5S8.006 15 8.627 15h9.746c.621 0 1.127.674 1.127 1.5s-.506 1.5-1.127 1.5z"/></svg>