<svg viewBox="0 0 48 48" xmlns="http://www.w3.org/2000/svg" fill-rule="evenodd" clip-rule="evenodd" stroke-linejoin="round" stroke-miterlimit="1.414"><path d="M45.587 45.632c-2.132 2.135-3.731 3.469-5.863 1.334L24 31.221 8.276 46.966c-2.132 2.135-3.731.534-5.863-1.334-2.133-1.868-3.465-3.736-1.333-5.871l15.724-15.745L1.08 8.271C-1.052 6.136.547 4.268 2.413 2.4 4.278.532 6.144-1.069 8.276 1.066L24 16.811 39.724 1.066c2.132-2.135 3.731-.534 5.863 1.334 2.133 1.868 3.465 3.736 1.333 5.871L31.196 24.016 46.92 39.761c2.132 2.135.8 4.003-1.333 5.871z"/></svg>