<svg viewBox="0 0 48 48" xmlns="http://www.w3.org/2000/svg" fill-rule="evenodd" clip-rule="evenodd" stroke-linejoin="round" stroke-miterlimit="1.414"><path d="M46.284.002H34.285c-1.029 0-1.715.685-1.715 1.714s.686 1.714 1.715 1.714h7.543L15.773 28.114c-.685.686-.685 1.715 0 2.4.685.344 2.056.344 2.743 0L44.571 5.487v8.228c0 1.029.686 1.715 1.715 1.715S48 14.744 48 13.715V1.716C48 .687 46.971.002 46.286.002h-.002zM44.57 44.57H3.429V3.429h22.284V0H0v47.997h47.997V22.284h-3.429v22.284l.002.002z" fill-rule="nonzero"/></svg>