<svg viewBox="0 0 48 48" xmlns="http://www.w3.org/2000/svg" fill-rule="evenodd" clip-rule="evenodd" stroke-linejoin="round" stroke-miterlimit="1.414"><path d="M44.895 40.641c-.214.932-.439 1.665-.674 2.2-.45 1.07-1.756 2.205-3.918 3.404-2.013 1.092-4.004 1.638-5.973 1.638-.578 0-1.14-.038-1.686-.113a13.679 13.679 0 0 1-1.847-.401 26.2 26.2 0 0 1-1.525-.466c-.332-.117-.926-.337-1.783-.658a66.995 66.995 0 0 0-1.573-.578c-2.098-.749-3.972-1.638-5.62-2.665-2.74-1.692-5.572-3.999-8.494-6.921-2.923-2.922-5.229-5.754-6.921-8.494-1.027-1.649-1.916-3.522-2.665-5.62a68.135 68.135 0 0 0-.578-1.574c-.321-.856-.541-1.45-.659-1.782-.117-.332-.272-.84-.465-1.525a13.85 13.85 0 0 1-.402-1.847A12.38 12.38 0 0 1 0 13.553c0-1.969.546-3.96 1.638-5.973 1.199-2.162 2.333-3.468 3.404-3.918.535-.235 1.268-.46 2.2-.674.931-.214 1.686-.321 2.264-.321.299 0 .524.032.674.096.385.128.953.942 1.702 2.441.236.406.557.984.964 1.734.406.749.781 1.429 1.123 2.039.343.61.675 1.183.996 1.718.064.086.252.353.562.803.31.45.541.83.69 1.14.15.31.225.616.225.915 0 .428-.305.964-.915 1.606a15.658 15.658 0 0 1-1.991 1.766 19.372 19.372 0 0 0-1.991 1.702c-.61.6-.915 1.092-.915 1.477 0 .193.053.434.16.723.107.289.198.508.273.658.075.15.225.407.45.771.225.364.348.567.369.61 1.627 2.933 3.49 5.449 5.588 7.547s4.614 3.961 7.547 5.588c.042.021.246.144.61.369s.621.375.771.45c.149.075.369.166.658.273.289.107.53.16.722.16.386 0 .878-.305 1.478-.915a19.497 19.497 0 0 0 1.702-1.991 15.658 15.658 0 0 1 1.766-1.991c.642-.61 1.177-.915 1.606-.915.299 0 .604.075.915.224.31.15.69.38 1.14.691.45.31.717.498.803.562.535.321 1.108.653 1.718.995.61.343 1.29.718 2.039 1.124.749.407 1.327.728 1.734.964 1.499.749 2.312 1.316 2.441 1.702.064.15.096.374.096.674 0 .578-.107 1.333-.321 2.264zM46.26 16h-1.443c-.487 0-.9-.17-1.24-.51a1.685 1.685 0 0 1-.509-1.24V8.616l-6.769 6.769c-.334.333-.725.484-1.173.452a1.82 1.82 0 0 1-1.183-.558l-1.231-1.231a1.813 1.813 0 0 1-.557-1.182c-.033-.449.118-.84.451-1.174l6.769-6.768-5.644-.01a1.615 1.615 0 0 1-1.23-.5 1.615 1.615 0 0 1-.5-1.231V1.741c0-.487.166-.897.5-1.231a1.689 1.689 0 0 1 1.24-.509H46.26c.461-.013.868.157 1.221.509.346.346.519.757.519 1.231V14.26a1.741 1.741 0 0 1-.519 1.23 1.726 1.726 0 0 1-1.221.51z"/></svg>