<svg viewBox="0 0 48 48" xmlns="http://www.w3.org/2000/svg" fill-rule="evenodd" clip-rule="evenodd" stroke-linejoin="round" stroke-miterlimit="1.414"><g fill-rule="nonzero"><path d="M0 12.006A2.4 2.4 0 0 1 2.397 9.6h43.206A2.4 2.4 0 0 1 48 12.006v23.988a2.4 2.4 0 0 1-2.397 2.406H2.397A2.4 2.4 0 0 1 0 35.994V12.006z" fill="#26337a"/><path d="M19.915 28.582l1.476-9.155h2.359l-1.476 9.155h-2.359zM30.832 19.652a5.826 5.826 0 0 0-2.114-.385c-2.333 0-3.974 1.243-3.988 3.022-.015 1.316 1.172 2.05 2.066 2.487.919.449 1.228.736 1.224 1.137-.006.613-.733.894-1.412.894-.944 0-1.446-.139-2.222-.48l-.303-.146-.33 2.049c.55.255 1.57.477 2.628.488 2.479 0 4.09-1.227 4.109-3.127.008-1.044-.621-1.835-1.982-2.488-.824-.424-1.33-.706-1.325-1.135.001-.381.428-.788 1.352-.788a4.125 4.125 0 0 1 1.765.352l.212.104.32-1.984zM33.973 25.336c.196-.526.94-2.559.94-2.559-.014.024.194-.53.313-.873l.16.789.546 2.643h-1.959zm2.911-5.9H35.06c-.565 0-.988.162-1.236.759l-3.504 8.391h2.478s.405-1.129.496-1.377l3.022.005c.071.319.287 1.372.287 1.372h2.19l-1.909-9.15zM17.936 19.435l-2.309 6.241-.247-1.268c-.431-1.462-1.77-3.047-3.268-3.841l2.112 8.007 2.497-.001 3.715-9.138h-2.5z" fill="#fff"/><path d="M13.483 19.428H9.679l-.031.19c2.96.758 4.919 2.589 5.732 4.79l-.827-4.207c-.143-.58-.557-.752-1.07-.773z" fill="#ed982d"/></g></svg>