<svg viewBox="0 0 48 48" xmlns="http://www.w3.org/2000/svg" fill-rule="evenodd" clip-rule="evenodd" stroke-linejoin="round" stroke-miterlimit="1.414"><path d="M46.532 6.976H1.468C.657 6.976 0 7.633 0 8.444v31.112c0 .811.657 1.468 1.468 1.468h45.064c.811 0 1.468-.657 1.468-1.468V8.444c0-.811-.657-1.468-1.468-1.468zM2.937 11.804l7.017 6.495-7.017 6.642V11.804zm2.279-1.891h37.567L24 27.299 5.216 9.913zm39.847 1.891v13.137l-7.017-6.642 7.017-6.495zM2.937 38.087v-9.102l9.177-8.686 10.889 10.078a1.469 1.469 0 0 0 1.995 0l10.888-10.078 8.967 8.487c.066.063.137.117.21.165v9.136H2.937z" fill-rule="nonzero"/></svg>