<svg viewBox="0 0 48 48" xmlns="http://www.w3.org/2000/svg" fill-rule="evenodd" clip-rule="evenodd" stroke-linejoin="round" stroke-miterlimit="1.414"><path d="M46.954 41.839a3.625 3.625 0 0 1 0 5.103 3.555 3.555 0 0 1-5.061 0L21.89 26.553a3.631 3.631 0 0 1 0-5.108L41.893 1.056a3.56 3.56 0 0 1 5.061 0 3.625 3.625 0 0 1 0 5.103L30.549 24.007l16.405 17.832zm-20.84 0a3.625 3.625 0 0 1 0 5.103 3.555 3.555 0 0 1-5.061 0L1.05 26.553a3.631 3.631 0 0 1 0-5.108L21.053 1.056a3.56 3.56 0 0 1 5.061 0 3.625 3.625 0 0 1 0 5.103L9.709 24.007l16.405 17.832z"/></svg>