<svg viewBox="0 0 48 48" xmlns="http://www.w3.org/2000/svg" fill-rule="evenodd" clip-rule="evenodd" stroke-linejoin="round" stroke-miterlimit="1.414"><path d="M47.778 43.952a1.689 1.689 0 0 1-.015 1.7 1.735 1.735 0 0 1-1.493.849H1.73a1.733 1.733 0 0 1-1.494-.849 1.684 1.684 0 0 1-.012-1.7L22.49 2.369c.308-.539.886-.87 1.511-.87.624 0 1.2.331 1.509.87l22.268 41.583zM25.67 32.997l.663-15.333h-5.532l.662 15.333h4.207zm-5.023 4.777c0 .76.275 1.384.824 1.872.55.488 1.236.732 2.057.732.822 0 1.508-.244 2.058-.732.549-.488.824-1.112.824-1.872s-.275-1.384-.824-1.872c-.55-.488-1.236-.732-2.058-.732-.821 0-1.507.244-2.057.732-.549.488-.824 1.112-.824 1.872z"/></svg>