<svg viewBox="0 0 48 48" xmlns="http://www.w3.org/2000/svg" fill-rule="evenodd" clip-rule="evenodd" stroke-linejoin="round" stroke-miterlimit="1.414"><path d="M24.087 47.088c12.702 0 23.001-10.296 23.001-23.002 0-12.705-10.299-23.001-23.001-23.001-12.705 0-22.999 10.296-22.999 23.001-.004 12.706 10.293 23.002 22.999 23.002z" fill="#fff"/><path d="M24 0c13.256 0 24 10.747 24 24 0 13.258-10.744 23.998-24 23.998-13.253 0-24-10.74-24-23.998C.001 10.747 10.747 0 24 0zm0 44.886c11.534 0 20.886-9.35 20.886-20.886S35.534 3.114 24 3.114C12.463 3.114 3.116 12.464 3.116 24 3.112 35.536 12.463 44.886 24 44.886z"/><path d="M26.054 8.681c2.294 0 2.967 1.331 2.967 2.85 0 1.899-1.519 3.656-4.113 3.656-2.172 0-3.205-1.089-3.141-2.897 0-1.521 1.271-3.609 4.287-3.609zm-5.875 29.113c-1.568 0-2.712-.954-1.617-5.129l1.795-7.412c.312-1.186.362-1.66 0-1.66-.468 0-2.503.819-3.703 1.627l-.782-1.282c3.809-3.183 8.19-5.049 10.065-5.049 1.567 0 1.825 1.852 1.045 4.704l-2.058 7.792c-.366 1.375-.21 1.851.157 1.851.471 0 2.009-.568 3.523-1.76l.886 1.189c-3.706 3.705-7.745 5.129-9.311 5.129z"/></svg>