<svg viewBox="0 0 48 48" xmlns="http://www.w3.org/2000/svg" fill-rule="evenodd" clip-rule="evenodd" stroke-linejoin="round" stroke-miterlimit="1.414"><path d="M23.999 48.003C10.741 48.003-.004 37.259 0 24.001 0 10.744 10.742 0 23.999 0 37.253 0 48 10.744 48 24.001c0 13.258-10.747 24.002-24.001 24.002zm9.743-14.437c.934-.817 1.517-1.634.583-2.568l-6.888-6.889 6.888-6.888c.934-.934.351-1.751-.583-2.569-.934-.817-1.635-1.517-2.569-.583l-6.888 6.888-6.889-6.888c-.934-.934-1.751-.234-2.568.583-.818.818-1.518 1.635-.584 2.569l6.888 6.888-6.888 6.889c-.934.934-.35 1.751.584 2.568.934.818 1.634 1.518 2.568.584l6.889-6.888 6.888 6.888c.934.934 1.635.35 2.569-.584z"/></svg>