<svg viewBox="0 0 48 48" xmlns="http://www.w3.org/2000/svg" fill-rule="evenodd" clip-rule="evenodd" stroke-linejoin="round" stroke-miterlimit="1.414"><path d="M24.087 47.088c12.702 0 23.001-10.296 23.001-23.002 0-12.705-10.299-23.001-23.001-23.001-12.705 0-22.999 10.296-22.999 23.001-.004 12.706 10.293 23.002 22.999 23.002z" fill="#fff"/><path d="M24 0c13.256 0 24 10.747 24 24 0 13.258-10.744 23.998-24 23.998-13.253 0-24-10.74-24-23.998C.001 10.747 10.747 0 24 0zm0 44.886c11.534 0 20.886-9.35 20.886-20.886S35.534 3.114 24 3.114C12.463 3.114 3.116 12.464 3.116 24 3.112 35.536 12.463 44.886 24 44.886z"/><path d="M24.25 37.457c-1.321 0-2.229-.083-2.229-1.404v-9.741H12.28c-1.321 0-1.321-.991-1.404-2.229-.083-1.239.083-2.23 1.404-2.23h9.741v-9.741c0-1.321 1.073-1.404 2.229-1.404 1.156 0 2.229.083 2.229 1.404v9.741h9.742c1.321 0 1.321.991 1.403 2.23.083 1.238-.082 2.229-1.403 2.229h-9.742v9.741c0 1.321-.99 1.486-2.229 1.404z"/></svg>