<svg viewBox="0 0 48 48" xmlns="http://www.w3.org/2000/svg" fill-rule="evenodd" clip-rule="evenodd" stroke-linejoin="round" stroke-miterlimit="1.414"><path d="M42.749 10.179c.501.501.929 1.18 1.286 2.037.356.857.535 1.643.536 2.357V45.43c0 .715-.25 1.321-.75 1.821a2.491 2.491 0 0 1-1.821.751H6a2.48 2.48 0 0 1-1.821-.751 2.49 2.49 0 0 1-.75-1.821V2.573c0-.714.25-1.321.75-1.82C4.68.253 5.287.003 6 .002h24c.714 0 1.5.179 2.357.536.857.358 1.536.787 2.037 1.286l8.355 8.355zM30.857 3.643v10.071h10.072c-.179-.517-.375-.884-.59-1.099l-8.385-8.384c-.213-.214-.58-.41-1.099-.59l.002.002zm10.286 40.928V17.143H30c-.714 0-1.321-.25-1.821-.751a2.489 2.489 0 0 1-.75-1.821V3.429H6.857v41.142h34.286zm-26.224-6.267v2.839h7.528v-2.839h-2.009l2.758-4.313c.089-.125.178-.272.267-.442a5.97 5.97 0 0 1 .201-.362c.045-.071.076-.107.094-.108h.053a.941.941 0 0 0 .134.267c.036.072.076.139.12.201.045.062.098.133.161.214l.175.228 2.866 4.313h-2.036v2.839h7.795v-2.839h-1.821l-5.143-7.313 5.224-7.553h1.795V20.57h-7.473v2.866h1.982l-2.759 4.258a16.48 16.48 0 0 1-.267.443c-.106.17-.187.29-.242.361l-.053.081h-.053a.93.93 0 0 0-.134-.268 3.17 3.17 0 0 0-.456-.615l-2.839-4.258h2.037v-2.867h-7.767v2.867h1.82l5.062 7.285-5.196 7.581h-1.824z" fill-rule="nonzero"/></svg>