<svg viewBox="0 0 48 48" xmlns="http://www.w3.org/2000/svg" fill-rule="evenodd" clip-rule="evenodd" stroke-linejoin="round" stroke-miterlimit="1.414"><path d="M36.727 26.733c-.234.155-.5.267-.801.267H9.086a1.495 1.495 0 0 1-1.491-1.5v-12c0-.828.668-1.5 1.491-1.5h26.84c.318 0 .595.121.837.291l3.581 7.185-3.617 7.257zM25.489 42c0 1.656-1.336 3-2.983 3h-2.982a2.992 2.992 0 0 1-2.982-3V30h8.947v12zM16.542 6c0-1.656 1.336-3 2.982-3h2.982a2.992 2.992 0 0 1 2.983 3v3h-8.947V6zM42.96 18.336l-4.444-8.913A1.468 1.468 0 0 0 37.361 9h-8.89V6c0-3.313-2.671-6-5.965-6h-2.982C16.23 0 13.56 2.687 13.56 6v3H7.595a2.992 2.992 0 0 0-2.982 3v15c0 1.656 1.336 3 2.982 3h5.965v12c0 3.314 2.67 6 5.964 6h2.982c3.294 0 5.965-2.686 5.965-6V30h8.946v-.036a1.49 1.49 0 0 0 1.099-.432l4.444-8.915c.335-.629.38-.835.425-1.141.021-.409-.112-.57-.425-1.14z"/></svg>