<svg viewBox="0 0 48 48" xmlns="http://www.w3.org/2000/svg" fill-rule="evenodd" clip-rule="evenodd" stroke-linejoin="round" stroke-miterlimit="1.414"><path d="M24.003 18.261c-3.102 0-5.62 2.569-5.62 5.739s2.518 5.739 5.62 5.739c3.102 0 5.614-2.569 5.614-5.739s-2.512-5.739-5.614-5.739zm0-6.783c3.102 0 5.614-2.573 5.614-5.739S27.105 0 24.003 0s-5.62 2.57-5.62 5.739c0 3.17 2.518 5.739 5.62 5.739zm0 25.044c-3.102 0-5.62 2.569-5.62 5.739 0 3.169 2.518 5.739 5.62 5.739 3.102 0 5.614-2.57 5.614-5.739 0-3.17-2.512-5.739-5.614-5.739z"/></svg>