<svg viewBox="0 0 48 48" xmlns="http://www.w3.org/2000/svg" fill-rule="evenodd" clip-rule="evenodd" stroke-linejoin="round" stroke-miterlimit="1.414"><path d="M28 13.007v14a.974.974 0 0 1-.281.718.973.973 0 0 1-.719.282H17a.973.973 0 0 1-.719-.282.974.974 0 0 1-.281-.718v-2c0-.292.094-.532.281-.719a.972.972 0 0 1 .719-.281h7v-11c0-.292.094-.532.281-.719a.973.973 0 0 1 .719-.282h2c.292 0 .531.094.719.282a.974.974 0 0 1 .281.719zm13 11c0-3.084-.76-5.928-2.281-8.532a16.952 16.952 0 0 0-6.188-6.187C29.927 7.767 27.083 7.007 24 7.007s-5.927.76-8.531 2.281a16.952 16.952 0 0 0-6.188 6.187C7.76 18.079 7 20.923 7 24.007c0 3.083.76 5.927 2.281 8.531a16.952 16.952 0 0 0 6.188 6.187c2.604 1.521 5.448 2.282 8.531 2.282s5.927-.761 8.531-2.282a16.952 16.952 0 0 0 6.188-6.187C40.24 29.934 41 27.09 41 24.007zm7 0c0 4.354-1.073 8.369-3.219 12.046-2.146 3.677-5.057 6.589-8.734 8.735-3.677 2.146-7.693 3.219-12.047 3.219-4.354 0-8.37-1.073-12.047-3.219-3.677-2.146-6.588-5.058-8.734-8.735C1.073 32.376 0 28.361 0 24.007c0-4.355 1.073-8.37 3.219-12.047 2.146-3.677 5.057-6.589 8.734-8.735C15.63 1.079 19.646.007 24 .007c4.354 0 8.37 1.072 12.047 3.218 3.677 2.146 6.588 5.058 8.734 8.735C46.927 15.637 48 19.652 48 24.007z"/></svg>