<svg viewBox="0 0 48 48" xmlns="http://www.w3.org/2000/svg" fill-rule="evenodd" clip-rule="evenodd" stroke-linejoin="round" stroke-miterlimit="1.414"><path d="M23.999 48.003C10.741 48.003-.004 37.259 0 24.001 0 10.744 10.742 0 23.999 0 37.253 0 48 10.744 48 24.001c0 13.258-10.747 24.002-24.001 24.002zm2.583-18.929l.805-18.623h-6.719l.805 18.623h5.109zm-6.101 5.802c0 .924.334 1.682 1.001 2.275.668.592 1.501.889 2.499.889.998 0 1.831-.297 2.498-.889.668-.593 1.002-1.351 1.002-2.275 0-.923-.334-1.681-1.002-2.274-.667-.592-1.5-.889-2.498-.889-.998 0-1.831.297-2.499.889-.667.593-1.001 1.351-1.001 2.274z"/></svg>