<svg viewBox="0 0 48 48" xmlns="http://www.w3.org/2000/svg" fill-rule="evenodd" clip-rule="evenodd" stroke-linejoin="round" stroke-miterlimit="1.414"><path d="M33.231 20.314c0-3.558-1.265-6.601-3.793-9.13-2.529-2.529-5.573-3.793-9.13-3.793-3.558 0-6.601 1.264-9.13 3.793-2.529 2.529-3.793 5.572-3.793 9.13 0 3.557 1.264 6.601 3.793 9.13 2.529 2.528 5.572 3.793 9.13 3.793 3.557 0 6.601-1.265 9.13-3.793 2.528-2.529 3.793-5.573 3.793-9.13zm14.769 24c0 1-.365 1.865-1.096 2.596-.731.731-1.596 1.096-2.596 1.096-1.039 0-1.904-.365-2.596-1.096l-9.895-9.866c-3.442 2.385-7.279 3.577-11.509 3.577-2.75 0-5.38-.533-7.89-1.601-2.509-1.067-4.673-2.509-6.49-4.326-1.817-1.818-3.26-3.981-4.327-6.491A19.956 19.956 0 0 1 0 20.314c0-2.75.534-5.38 1.601-7.89 1.067-2.509 2.51-4.673 4.327-6.49 1.817-1.817 3.981-3.26 6.49-4.327a19.964 19.964 0 0 1 7.89-1.601c2.75 0 5.38.534 7.889 1.601 2.51 1.067 4.673 2.51 6.49 4.327 1.818 1.817 3.26 3.981 4.327 6.49a19.947 19.947 0 0 1 1.601 7.89c0 4.23-1.192 8.067-3.577 11.509l9.895 9.895c.711.711 1.067 1.577 1.067 2.596z"/></svg>