<svg viewBox="0 0 48 48" xmlns="http://www.w3.org/2000/svg" fill-rule="evenodd" clip-rule="evenodd" stroke-linejoin="round" stroke-miterlimit="1.414"><path d="M9.028 38.456H5.729A5.734 5.734 0 0 1 0 32.727V8.403a5.725 5.725 0 0 1 5.729-5.73h27.514a5.735 5.735 0 0 1 5.729 5.73v1.141h3.303A5.732 5.732 0 0 1 48 15.273v24.324a5.726 5.726 0 0 1-5.729 5.73H14.757a5.725 5.725 0 0 1-5.729-5.738v-.93h2.864v-.203H9.228l-.2.2v.003h-.002l.001-.001.001-.002v-.2zM38.972 9.783v2.626h.236v20.528c0 3.159-2.571 5.722-5.737 5.722H11.892v.931a2.86 2.86 0 0 0 2.864 2.874H42.27a2.858 2.858 0 0 0 2.863-2.866V15.275a2.868 2.868 0 0 0-2.859-2.866h-3.066V9.546l-.236.237zM2.867 8.403v24.324a2.87 2.87 0 0 0 2.864 2.866h27.513a2.86 2.86 0 0 0 2.864-2.866V8.403a2.87 2.87 0 0 0-2.864-2.866H5.731a2.859 2.859 0 0 0-2.864 2.866zm27.15 10.658l-4.814-3.898a1.18 1.18 0 0 1 0-1.692 1.248 1.248 0 0 1 1.734 0l7.283 5.895c.256.25.365.58.347.907.018.326-.091.656-.347.907l-7.283 5.895a1.248 1.248 0 0 1-1.734 0 1.18 1.18 0 0 1 0-1.692l4.861-3.935v-.001H15.116a1.204 1.204 0 0 1-1.218-1.193c0-.66.545-1.193 1.218-1.193h14.901z"/></svg>