<svg viewBox="0 0 48 48" xmlns="http://www.w3.org/2000/svg" fill-rule="evenodd" clip-rule="evenodd" stroke-linejoin="round" stroke-miterlimit="1.414"><path d="M23.999 48.003C10.741 48.003-.004 37.259 0 24.001 0 10.744 10.742 0 23.999 0 37.253 0 48 10.744 48 24.001c0 13.258-10.747 24.002-24.001 24.002zm.164-10.632c1.238.083 2.229-.082 2.229-1.403v-9.742h9.741c1.321 0 1.486-.99 1.404-2.229-.083-1.238-.083-2.229-1.404-2.229h-9.741v-9.741c0-1.321-1.074-1.404-2.229-1.404-1.156 0-2.229.083-2.229 1.404v9.741h-9.742c-1.321 0-1.486.991-1.404 2.229.083 1.239.083 2.229 1.404 2.229h9.742v9.742c0 1.321.908 1.403 2.229 1.403z"/></svg>