<svg viewBox="0 0 48 48" xmlns="http://www.w3.org/2000/svg" fill-rule="evenodd" clip-rule="evenodd" stroke-linejoin="round" stroke-miterlimit="1.414"><g fill-rule="nonzero"><path d="M0 12.006A2.4 2.4 0 0 1 2.397 9.6h43.206A2.4 2.4 0 0 1 48 12.006v23.988a2.4 2.4 0 0 1-2.397 2.406H2.397A2.4 2.4 0 0 1 0 35.994V12.006z" fill="#006"/><path d="M26.942 24.233a9.367 9.367 0 0 1-9.367 9.367 9.367 9.367 0 1 1 0-18.734 9.367 9.367 0 0 1 9.367 9.367z" fill="#c00"/><path d="M30.151 14.866a9.337 9.337 0 0 0-7.234 3.416h1.892c.259.315.497.646.714.992h-3.321a9.382 9.382 0 0 0-.539.992h4.4c.15.321.282.652.396.992h-5.193a9.405 9.405 0 0 0-.272.991h5.737a9.4 9.4 0 0 1-.272 4.96h-5.193c.114.339.246.67.396.992h4.401a9.413 9.413 0 0 1-.541.992h-3.32c.217.345.456.677.715.991h1.892a9.341 9.341 0 0 1-.947.992 9.337 9.337 0 0 0 6.289 2.424 9.367 9.367 0 0 0 0-18.734z" fill="#f90"/><path d="M15.387 25.259a1.603 1.603 0 0 0-.227-.016c-.576 0-.868.197-.868.588 0 .241.143.393.365.393.414 0 .713-.394.73-.965zm.74 1.721h-.843l.019-.4c-.257.316-.599.467-1.065.467-.551 0-.929-.43-.929-1.055 0-.941.657-1.49 1.785-1.49.116 0 .263.011.415.03a.967.967 0 0 0 .039-.251c0-.256-.177-.352-.652-.352a3.364 3.364 0 0 0-1.076.175l.141-.869c.506-.149.841-.205 1.217-.205.873 0 1.336.392 1.335 1.133.002.199-.031.443-.083.766-.088.559-.277 1.759-.303 2.051zM12.883 26.98h-1.017l.583-3.652-1.301 3.652h-.693l-.086-3.631-.612 3.631h-.952l.795-4.751h1.463l.088 2.659.892-2.659h1.627l-.787 4.751zM31.407 25.259a1.59 1.59 0 0 0-.226-.016c-.577 0-.868.197-.868.588 0 .241.142.393.364.393.414 0 .713-.394.73-.965zm.74 1.721h-.842l.019-.4c-.257.316-.6.467-1.065.467-.552 0-.93-.43-.93-1.055 0-.941.658-1.49 1.786-1.49a3.5 3.5 0 0 1 .414.03.979.979 0 0 0 .04-.251c0-.256-.177-.352-.652-.352a3.371 3.371 0 0 0-1.077.175l.142-.869c.506-.149.84-.205 1.216-.205.874 0 1.336.392 1.335 1.133.002.199-.031.443-.082.766-.088.559-.278 1.759-.304 2.051zM20.646 26.922a2.336 2.336 0 0 1-.73.125c-.52 0-.804-.299-.804-.849-.007-.171.075-.62.139-1.03.059-.361.442-2.637.442-2.637h1.01l-.118.585h.611l-.138.929h-.613c-.117.735-.284 1.65-.286 1.771 0 .2.106.287.348.287a.811.811 0 0 0 .274-.037l-.135.856zM23.746 26.89a3.453 3.453 0 0 1-1.038.157c-1.131-.001-1.721-.592-1.721-1.724 0-1.32.75-2.293 1.769-2.293.833 0 1.366.544 1.366 1.398 0 .284-.037.56-.125.95h-2.013c-.068.561.291.795.879.795.362 0 .688-.075 1.051-.243l-.168.96zm-.569-2.29c.006-.081.107-.69-.47-.69-.322 0-.552.245-.646.69h1.116zM16.737 24.338c0 .488.237.825.774 1.079.412.193.476.251.476.426 0 .241-.182.35-.584.35-.304 0-.586-.048-.911-.153l-.14.893c.231.05.437.096 1.058.114 1.073 0 1.569-.408 1.569-1.292 0-.53-.208-.842-.717-1.076-.426-.196-.476-.24-.476-.42 0-.209.17-.316.498-.316.2 0 .472.022.731.058l.145-.896a6.864 6.864 0 0 0-.895-.075c-1.138 0-1.532.594-1.528 1.308zM28.691 23.132c.283 0 .547.073.909.256l.167-1.031c-.15-.058-.674-.402-1.118-.402-.68 0-1.256.338-1.66.895-.591-.195-.834.199-1.131.593l-.264.062c.02-.13.038-.258.032-.389h-.934c-.128 1.196-.354 2.408-.53 3.604l-.047.26h1.018a68.81 68.81 0 0 0 .319-2.288l.383-.212c.057-.213.236-.285.596-.276a4.319 4.319 0 0 0-.073.792c0 1.264.683 2.051 1.777 2.051.282 0 .525-.037.9-.139l.178-1.083c-.337.166-.613.244-.864.244-.591 0-.949-.437-.949-1.158 0-1.046.532-1.779 1.291-1.779zM37.301 22.229l-.226 1.373c-.277-.366-.576-.631-.97-.631-.513 0-.981.389-1.286.962-.426-.089-.866-.239-.866-.239l-.001.004c.034-.32.049-.515.045-.582h-.934c-.127 1.196-.353 2.408-.53 3.604l-.047.26h1.018c.137-.891.242-1.633.32-2.22.348-.314.522-.588.872-.57-.155.376-.246.81-.246 1.254 0 .966.488 1.603 1.228 1.603.373 0 .659-.129.937-.426l-.047.359h.962l.774-4.751h-1.003zm-1.271 3.859c-.347 0-.522-.257-.522-.762 0-.76.328-1.298.789-1.298.349 0 .539.266.539.757 0 .766-.333 1.303-.806 1.303z" fill="#006"/><path d="M13.176 26.698h-1.017l.583-3.652-1.301 3.652h-.693l-.086-3.631-.612 3.631h-.952l.795-4.751h1.462l.041 2.941.987-2.941h1.579l-.786 4.751zM15.68 24.977a1.78 1.78 0 0 0-.227-.016c-.576 0-.868.198-.868.588 0 .24.142.394.365.394.414 0 .712-.394.73-.966zm.739 1.721h-.842l.019-.4c-.257.316-.6.467-1.066.467-.551 0-.928-.43-.928-1.055 0-.942.657-1.49 1.785-1.49a3.5 3.5 0 0 1 .414.03.93.93 0 0 0 .04-.251c0-.256-.177-.351-.652-.351a3.386 3.386 0 0 0-1.077.173l.141-.868c.507-.149.841-.205 1.218-.205.873 0 1.335.392 1.335 1.133.001.199-.032.444-.083.766-.088.559-.278 1.76-.304 2.051zM30.059 22.075l-.166 1.031c-.363-.182-.626-.256-.909-.256-.759 0-1.291.734-1.291 1.78 0 .721.357 1.157.949 1.157.25 0 .527-.077.863-.244l-.178 1.083c-.375.102-.617.139-.899.139-1.095 0-1.777-.787-1.777-2.051 0-1.698.943-2.885 2.291-2.885.444 0 .968.188 1.117.246zM31.7 24.977a1.757 1.757 0 0 0-.227-.016c-.576 0-.867.198-.867.588 0 .24.142.394.364.394.414 0 .713-.394.73-.966zm.74 1.721h-.843l.02-.4c-.257.316-.6.467-1.066.467-.552 0-.929-.43-.929-1.055 0-.942.657-1.49 1.785-1.49.116 0 .263.011.414.03a.93.93 0 0 0 .04-.251c0-.256-.176-.351-.652-.351a3.384 3.384 0 0 0-1.076.173l.141-.868c.507-.149.841-.205 1.217-.205.873 0 1.336.392 1.335 1.133.002.199-.031.444-.082.766-.089.559-.278 1.76-.304 2.051zM20.939 26.64a2.336 2.336 0 0 1-.73.125c-.52 0-.804-.299-.804-.848-.007-.172.075-.62.139-1.03.059-.362.441-2.637.441-2.637h1.011l-.118.585h.519l-.138.928h-.521c-.117.735-.285 1.65-.287 1.772 0 .199.107.286.349.286a.79.79 0 0 0 .274-.037l-.135.856zM24.039 26.609a3.457 3.457 0 0 1-1.038.156c-1.132 0-1.721-.592-1.721-1.723 0-1.321.75-2.294 1.768-2.294.834 0 1.367.544 1.367 1.399 0 .283-.037.56-.125.95h-2.013c-.068.56.291.794.879.794.361 0 .688-.075 1.051-.243l-.168.961zm-.569-2.291c.006-.081.108-.69-.47-.69-.322 0-.552.246-.646.69h1.116zM17.029 24.056c0 .489.238.826.775 1.079.412.194.476.251.476.427 0 .24-.182.349-.585.349-.303 0-.585-.047-.911-.152l-.139.892c.231.05.437.096 1.058.114 1.073 0 1.568-.408 1.568-1.291 0-.531-.207-.843-.716-1.077-.427-.196-.476-.239-.476-.42 0-.209.169-.316.498-.316.199 0 .472.022.731.059l.144-.896a6.843 6.843 0 0 0-.895-.076c-1.137 0-1.531.594-1.528 1.308zM37.822 26.698h-.962l.048-.359c-.279.298-.565.426-.938.426-.738 0-1.227-.636-1.227-1.603 0-1.285.758-2.369 1.654-2.369.395 0 .693.161.971.527l.226-1.373h1.003l-.775 4.751zm-1.5-.892c.474 0 .806-.537.806-1.302 0-.491-.189-.758-.538-.758-.462 0-.789.538-.789 1.298 0 .506.175.762.521.762zM33.356 22.835c-.127 1.195-.353 2.407-.53 3.604l-.047.259h1.017c.364-2.363.452-2.824 1.023-2.766.09-.484.26-.907.386-1.121-.426-.089-.664.152-.976.61.025-.198.07-.39.061-.586h-.934zM24.985 22.835c-.128 1.195-.354 2.407-.531 3.604l-.046.259h1.017c.364-2.363.452-2.824 1.021-2.766.092-.484.261-.907.387-1.121-.426-.089-.664.152-.975.61.025-.198.07-.39.061-.586h-.934z" fill="#fff"/></g></svg>