<svg viewBox="0 0 48 48" xmlns="http://www.w3.org/2000/svg" fill-rule="evenodd" clip-rule="evenodd" stroke-linejoin="round" stroke-miterlimit="1.414"><path d="M44.963 28.441a2.408 2.408 0 0 1-1.896.942h-.03c-.03-3.11-2.548-5.622-5.63-5.622-3.081 0-5.585 2.512-5.629 5.622H17.437c-.03-3.11-2.548-5.622-5.63-5.622-3.081 0-5.585 2.512-5.629 5.622h-.682a2.071 2.071 0 0 1-1.422-.553l-.578-.524a2.762 2.762 0 0 1-.459-.553h1.082c.74 0 1.333-.598 1.333-1.346 0-.747-.593-1.345-1.333-1.345H3.022c0-.015.015-.015.015-.03l.43-.673a1.667 1.667 0 0 1 1.081-.733l8.474-1.51h30.459l.43.374c.356.314.563.762.563 1.256v1.525c0 .344.119.658.356.912.296.329.459.748.459 1.181a1.53 1.53 0 0 1-.326 1.077zm-10.519 1.002c0-1.645 1.334-2.991 2.963-2.991 1.63 0 2.963 1.346 2.963 2.991s-1.333 2.99-2.963 2.99c-1.629 0-2.963-1.345-2.963-2.99zm-19.525 4.74a5.708 5.708 0 0 0 1.881-2.108h15.615a5.827 5.827 0 0 0 1.881 2.108H14.919zm-6.06-4.74c0-1.645 1.334-2.991 2.963-2.991 1.63 0 2.963 1.346 2.963 2.991s-1.333 2.99-2.963 2.99c-1.629 0-2.963-1.345-2.963-2.99zm11.393-12.59c.281-.225.637-.344.992-.344h4.637l-.666 2.93h-8.341l3.378-2.586zm14.815 2.586H27.97l.667-2.93h5.689l.741 2.93zm5.363 0h-2.608l-.711-2.796c.163.075.311.165.445.269l2.874 2.527zm6.755 4.322a4.434 4.434 0 0 0-1.481-3.29l-6.415-5.592a4.294 4.294 0 0 0-2.83-1.062h-15.2c-.933 0-1.866.314-2.607.882l-6.267 4.815-8.266 1.48a4.35 4.35 0 0 0-2.86 1.914l-.429.673A5.206 5.206 0 0 0 0 26.422c0 .748.148 1.466.459 2.139a5.026 5.026 0 0 0 1.289 1.764l.578.523a4.784 4.784 0 0 0 3.2 1.227h1.318a5.839 5.839 0 0 0 1.882 2.108h31.793a5.708 5.708 0 0 0 1.881-2.108h.667c1.555 0 3.052-.748 4.014-1.989A4.494 4.494 0 0 0 48 27.364a4.41 4.41 0 0 0-.815-2.571v-1.032z"/></svg>