<svg viewBox="0 0 48 48" xmlns="http://www.w3.org/2000/svg" fill-rule="evenodd" clip-rule="evenodd" stroke-linejoin="round" stroke-miterlimit="1.414"><path d="M47.998 24.002c0 3.25-.635 6.354-1.905 9.311-1.271 2.957-2.979 5.509-5.126 7.656-2.146 2.146-4.698 3.855-7.656 5.125A23.335 23.335 0 0 1 24 48c-3.583 0-6.989-.755-10.218-2.266a23.46 23.46 0 0 1-8.249-6.391 1.119 1.119 0 0 1-.203-.703.926.926 0 0 1 .266-.641l4.28-4.312c.209-.187.469-.281.781-.281.334.042.573.167.719.374a15.705 15.705 0 0 0 5.593 4.594A15.741 15.741 0 0 0 24 39.999c2.166 0 4.234-.421 6.203-1.265 1.97-.843 3.673-1.984 5.11-3.421 1.437-1.437 2.578-3.14 3.421-5.11A15.582 15.582 0 0 0 39.999 24c0-2.166-.421-4.234-1.265-6.203-.843-1.97-1.984-3.673-3.421-5.11-1.437-1.437-3.14-2.578-5.11-3.421A15.582 15.582 0 0 0 24 8.001c-2.042 0-4 .369-5.874 1.109a15.514 15.514 0 0 0-5 3.173l4.28 4.311c.647.626.792 1.344.438 2.156-.355.833-.97 1.25-1.845 1.25H2c-.541 0-1.01-.198-1.407-.594A1.914 1.914 0 0 1 0 18V4c0-.875.416-1.489 1.249-1.844.812-.355 1.531-.209 2.156.437l4.062 4.032a24.26 24.26 0 0 1 7.64-4.891A23.539 23.539 0 0 1 23.997 0c3.25 0 6.353.635 9.311 1.906 2.957 1.27 5.509 2.979 7.656 5.125 2.146 2.147 3.855 4.699 5.125 7.656a23.335 23.335 0 0 1 1.906 9.311l.003.004z" fill-rule="nonzero"/></svg>