<svg viewBox="0 0 48 48" xmlns="http://www.w3.org/2000/svg" fill-rule="evenodd" clip-rule="evenodd" stroke-linejoin="round" stroke-miterlimit="1.414"><path d="M24.001 0C10.743 0 0 10.745 0 23.999c0 13.258 10.743 24.002 24.002 24.002C37.252 48.001 48 37.255 48 23.999 48 10.745 37.252 0 24.001 0zm1.716 8.492c2.293 0 2.967 1.331 2.967 2.85 0 1.9-1.52 3.657-4.113 3.657-2.172 0-3.205-1.09-3.141-2.897 0-1.522 1.27-3.61 4.287-3.61zm-5.875 29.114c-1.568 0-2.712-.953-1.618-5.129l1.796-7.413c.312-1.185.362-1.659 0-1.659-.468 0-2.504.818-3.704 1.627l-.781-1.283c3.809-3.182 8.19-5.048 10.065-5.048 1.567 0 1.825 1.851 1.045 4.704l-2.058 7.79c-.365 1.377-.209 1.853.157 1.853.47 0 2.009-.569 3.523-1.762l.886 1.191c-3.706 3.704-7.745 5.129-9.311 5.129z"/></svg>