<svg viewBox="0 0 48 48" xmlns="http://www.w3.org/2000/svg" fill-rule="evenodd" clip-rule="evenodd" stroke-linejoin="round" stroke-miterlimit="1.414"><path d="M47.779 17.385c-.222 3.288-2.923 2.135.221 6.206-.645 6.878-8.684 5.811-16.956 5.379-2.394 2.007 11.355 16.587-2.861 19.028-.442-2.413-.882-4.828-1.321-7.239-1.1-3.408-3.613-4.047-5.508-6.414-3.004-3.753-2.942-11.695-9.468-11.996V2.702c6.282-.686 22.894-5.025 29.285-1.036 3.733 2.331 2.55 2.912 2.862 5.585.883.964 2.13 1.38 2.644 2.897.593 1.502-.552 2.887-.881 4.344.736.894 1.468 1.031 1.983 2.893zM9.025 23.177H.659c-.364 0-.659-.278-.659-.619V2.079c0-.342.296-.621.659-.621h8.366c.366 0 .662.279.662.621v20.478c.002.342-.296.62-.662.62z"/></svg>