<svg viewBox="0 0 48 48" xmlns="http://www.w3.org/2000/svg" fill-rule="evenodd" clip-rule="evenodd" stroke-linejoin="round" stroke-miterlimit="1.414"><path d="M39.466 18.668h-4.797v-6.4C34.669 4.542 31.108 0 24.001 0c-7.11 0-10.669 4.542-10.669 12.268v1.067h5.334V11.2c0-3.855 2.125-5.866 5.335-5.866 3.209 0 5.334 2.01 5.334 5.866v7.468H8.001c-1.475 0-2.668 1.721-2.668 3.196v20.804c0 1.464 1.142 3.037 2.536 3.486l3.192 1.032c1.398.445 3.739.814 5.206.814h15.467c1.465 0 3.808-.369 5.203-.819l3.187-1.032c1.398-.444 2.543-2.017 2.543-3.481V21.864c.001-1.475-1.728-3.196-3.201-3.196z"/></svg>