<svg viewBox="0 0 48 48" xmlns="http://www.w3.org/2000/svg" fill-rule="evenodd" clip-rule="evenodd" stroke-linejoin="round" stroke-miterlimit="1.414"><path d="M28.826 22.697l10.603-10.603a1.317 1.317 0 0 1 2.131.39.392.392 0 0 1 .046.045c.091.104.137.26.137.468v2.808c0 .668.227 1.001.682 1.001.171 0 .303-.038.395-.114a.632.632 0 0 0 .197-.274c.04-.106.079-.248.118-.426a.822.822 0 0 1 .16-.367c.069-.078.172-.117.308-.117a.48.48 0 0 1 .346.128c.09.085.135.209.135.37 0 .153-.023.313-.069.482a1.906 1.906 0 0 1-.18.446 1.263 1.263 0 0 1-.556.527c-.23.108-.517.163-.861.163-.381 0-.704-.078-.969-.234a1.332 1.332 0 0 1-.572-.653 1.88 1.88 0 0 1-.133-.492 4.91 4.91 0 0 1-.029-.588v-1.126l-9.898 9.898v2.451h9.938v-.858a.757.757 0 0 1 1.514 0v.856l-.001.002h1.538c.18 0 .353.073.477.204l3.536 3.714a.66.66 0 0 1-.477 1.112H43.9a4.738 4.738 0 0 1-4.718 4.382 4.739 4.739 0 0 1-4.719-4.382H12.297a4.738 4.738 0 0 1-4.718 4.382A4.739 4.739 0 0 1 2.86 31.91H.773a.654.654 0 0 1-.26-.054.803.803 0 0 1-.513-.748v-3.92c0-.443.359-.803.802-.803h.716l.184-.626c.243-1.295 1.54-3.677 4.792-3.677l.176.003h3.432l6.281-7.065a.66.66 0 0 1 .492-.221h5.834v-.428a.756.756 0 1 1 1.513 0v.428h.835c.363 0 .658.294.658.658V26.88h1.417v-4.183h1.694zM7.579 33.934a2.377 2.377 0 0 1-2.375-2.375 2.378 2.378 0 0 1 2.375-2.375 2.378 2.378 0 0 1 2.375 2.375 2.378 2.378 0 0 1-2.375 2.375zm31.603 0a2.377 2.377 0 0 1-2.375-2.375 2.378 2.378 0 0 1 2.375-2.375 2.378 2.378 0 0 1 2.375 2.375 2.378 2.378 0 0 1-2.375 2.375zm-16.425-12.29v-4.476H18.74l-3.843 4.476h7.86z"/></svg>